<svg xmlns="http://www.w3.org/2000/svg" xmlns:xlink="http://www.w3.org/1999/xlink" width="500" zoomAndPan="magnify" viewBox="0 0 375 374.999991" height="500" preserveAspectRatio="xMidYMid meet" version="1.0"><defs><clipPath id="28da43bcab"><path d="M 75.136719 78 L 300 78 L 300 342 L 75.136719 342 Z M 75.136719 78 " clip-rule="nonzero"/></clipPath></defs><g clip-path="url(#28da43bcab)"><path fill="#02111a" d="M 75.136719 78.914062 L 95.558594 310.539062 L 187.496094 341.085938 L 279.429688 310.539062 L 299.855469 78.914062 Z M 258.363281 125.730469 L 255.554688 153.410156 L 188.082031 182.261719 L 187.90625 182.320312 L 253.15625 182.320312 L 245.664062 268.109375 L 188.199219 284.90625 L 130.378906 267.816406 L 126.632812 224.570312 L 155.25 224.570312 L 157.125 246.984375 L 187.90625 254.769531 L 219.917969 245.757812 L 222.082031 209.707031 L 124.761719 209.414062 L 124.761719 209.355469 L 124.644531 209.414062 L 122.539062 182.320312 L 188.140625 154.992188 L 191.941406 153.410156 L 120.023438 153.410156 L 116.628906 125.730469 Z M 258.363281 125.730469 " fill-opacity="1" fill-rule="nonzero"/></g></svg>