<svg xmlns="http://www.w3.org/2000/svg" xmlns:xlink="http://www.w3.org/1999/xlink" width="500" zoomAndPan="magnify" viewBox="0 0 375 374.999991" height="500" preserveAspectRatio="xMidYMid meet" version="1.0"><defs><clipPath id="13bf051dd3"><path d="M 47.332031 57 L 184 57 L 184 318.75 L 47.332031 318.75 Z M 47.332031 57 " clip-rule="nonzero"/></clipPath><clipPath id="c54c0acf3d"><path d="M 116 165 L 287 165 L 287 181 L 116 181 Z M 116 165 " clip-rule="nonzero"/></clipPath><clipPath id="9756cf1fa8"><path d="M 286.644531 180.589844 C 286.234375 175.492188 285.375 170.46875 284.058594 165.523438 L 119.214844 165.523438 C 117.898438 170.46875 117.035156 175.492188 116.625 180.589844 Z M 286.644531 180.589844 " clip-rule="nonzero"/></clipPath><clipPath id="b4d7e2f344"><path d="M 116 194 L 287 194 L 287 210 L 116 210 Z M 116 194 " clip-rule="nonzero"/></clipPath><clipPath id="d5d5d4196d"><path d="M 286.644531 194.582031 L 116.628906 194.582031 C 117.035156 199.683594 117.898438 204.707031 119.214844 209.648438 L 284.0625 209.648438 C 285.375 204.707031 286.238281 199.683594 286.644531 194.582031 Z M 286.644531 194.582031 " clip-rule="nonzero"/></clipPath><clipPath id="73002b113e"><path d="M 124 223 L 279 223 L 279 273 L 124 273 Z M 124 223 " clip-rule="nonzero"/></clipPath><clipPath id="88fd338bb4"><path d="M 201.636719 272.910156 C 235.871094 272.910156 265.378906 252.742188 278.96875 223.640625 L 124.304688 223.640625 C 137.894531 252.742188 167.402344 272.910156 201.636719 272.910156 Z M 201.636719 272.910156 " clip-rule="nonzero"/></clipPath></defs><path fill="#02111a" d="M 124.308594 223.640625 L 81.519531 223.640625 C 87.1875 243.074219 97.699219 260.492188 113.089844 275.882812 C 137.625 300.421875 167.128906 312.675781 201.628906 312.675781 C 208.527344 312.675781 215.210938 312.164062 221.699219 311.183594 C 247.6875 307.261719 270.441406 295.511719 289.9375 275.882812 C 305.425781 260.496094 316.011719 243.074219 321.722656 223.640625 Z M 100.714844 165.527344 L 78.363281 165.527344 C 77.527344 170.519531 76.984375 175.539062 76.734375 180.59375 L 326.535156 180.59375 C 326.28125 175.453125 325.722656 170.4375 324.898438 165.527344 M 76.734375 194.585938 C 76.988281 199.726562 77.542969 204.742188 78.363281 209.648438 L 324.902344 209.648438 C 325.742188 204.660156 326.289062 199.636719 326.542969 194.585938 M 321.726562 151.535156 C 316.023438 132.046875 305.433594 114.546875 289.9375 99.046875 C 270.492188 79.605469 247.804688 67.9375 221.898438 64.015625 C 215.183594 63 208.425781 62.492188 201.632812 62.5 C 167.128906 62.5 137.625 74.6875 113.089844 99.046875 C 97.695312 114.546875 87.175781 132.046875 81.511719 151.535156 " fill-opacity="1" fill-rule="nonzero"/><g clip-path="url(#13bf051dd3)"><path fill="#02111a" d="M 69.308594 187.59375 C 69.308594 121.601562 118.867188 66.773438 183.339844 57.128906 C 181.742188 57.070312 180.132812 57.007812 178.519531 57.007812 C 106.167969 57.007812 47.511719 115.476562 47.511719 187.59375 C 47.511719 259.714844 106.164062 318.179688 178.519531 318.179688 C 180.140625 318.179688 181.746094 318.117188 183.351562 318.058594 C 118.867188 308.414062 69.308594 253.585938 69.308594 187.59375 Z M 69.308594 187.59375 " fill-opacity="1" fill-rule="nonzero"/></g><g clip-path="url(#c54c0acf3d)"><g clip-path="url(#9756cf1fa8)"><path fill="#02111a" d="M 116.625 165.523438 L 116.625 180.589844 L 286.644531 180.589844 L 286.644531 165.523438 Z M 116.625 165.523438 " fill-opacity="1" fill-rule="nonzero"/></g></g><g clip-path="url(#b4d7e2f344)"><g clip-path="url(#d5d5d4196d)"><path fill="#02111a" d="M 116.628906 194.582031 L 116.628906 209.648438 L 286.644531 209.648438 L 286.644531 194.582031 Z M 116.628906 194.582031 " fill-opacity="1" fill-rule="nonzero"/></g></g><g clip-path="url(#73002b113e)"><g clip-path="url(#88fd338bb4)"><path fill="#02111a" d="M 124.304688 223.640625 L 124.304688 272.910156 L 278.96875 272.910156 L 278.96875 223.640625 Z M 124.304688 223.640625 " fill-opacity="1" fill-rule="nonzero"/></g></g><path fill="#bae8e8" d="M 104.027344 194.585938 L 326.367188 194.585938 C 326.484375 192.359375 326.550781 190.117188 326.550781 187.863281 C 326.550781 185.421875 326.460938 183 326.324219 180.589844 L 76.734375 180.589844 C 76.597656 182.996094 76.507812 185.421875 76.507812 187.863281 C 76.507812 190.117188 76.574219 192.359375 76.691406 194.585938 Z M 123.808594 151.535156 L 81.511719 151.535156 C 80.121094 156.089844 79.222656 160.765625 78.363281 165.527344 L 324.109375 165.527344 C 323.257812 160.796875 322.136719 156.132812 320.746094 151.535156 M 308.039062 209.648438 L 78.359375 209.648438 C 79.199219 214.40625 80.152344 219.078125 81.519531 223.640625 L 321.5625 223.640625 C 322.9375 219.039062 324.039062 214.375 324.871094 209.648438 Z M 308.039062 209.648438 " fill-opacity="1" fill-rule="nonzero"/></svg>