<svg xmlns="http://www.w3.org/2000/svg" xmlns:xlink="http://www.w3.org/1999/xlink" width="500" zoomAndPan="magnify" viewBox="0 0 375 374.999991" height="500" preserveAspectRatio="xMidYMid meet" version="1.0"><defs><clipPath id="37af686798"><path d="M 99 56.089844 L 276 56.089844 L 276 318.589844 L 99 318.589844 Z M 99 56.089844 " clip-rule="nonzero"/></clipPath></defs><path fill="#02111a" d="M 275.082031 187.488281 C 275.082031 188.921875 275.011719 190.351562 274.871094 191.777344 C 274.730469 193.207031 274.519531 194.621094 274.242188 196.027344 C 273.960938 197.433594 273.613281 198.824219 273.195312 200.195312 C 272.78125 201.566406 272.296875 202.917969 271.75 204.242188 C 271.199219 205.566406 270.589844 206.859375 269.914062 208.125 C 269.234375 209.390625 268.5 210.617188 267.703125 211.8125 C 266.90625 213.003906 266.054688 214.152344 265.144531 215.261719 C 264.234375 216.371094 263.273438 217.429688 262.257812 218.445312 C 261.246094 219.457031 260.183594 220.421875 259.074219 221.332031 C 257.96875 222.238281 256.816406 223.09375 255.625 223.890625 C 254.433594 224.6875 253.203125 225.421875 251.9375 226.097656 C 250.675781 226.773438 249.378906 227.386719 248.054688 227.933594 C 246.730469 228.484375 245.382812 228.964844 244.011719 229.382812 C 242.636719 229.800781 241.25 230.148438 239.84375 230.425781 C 238.4375 230.707031 237.019531 230.917969 235.59375 231.058594 C 234.164062 231.199219 232.734375 231.269531 231.300781 231.269531 C 229.867188 231.269531 228.4375 231.199219 227.007812 231.058594 C 225.582031 230.917969 224.167969 230.707031 222.761719 230.425781 C 221.351562 230.148438 219.964844 229.800781 218.59375 229.382812 C 217.21875 228.964844 215.871094 228.484375 214.546875 227.933594 C 213.222656 227.386719 211.925781 226.773438 210.664062 226.097656 C 209.398438 225.421875 208.167969 224.6875 206.976562 223.890625 C 205.785156 223.09375 204.636719 222.238281 203.527344 221.332031 C 202.417969 220.421875 201.355469 219.457031 200.34375 218.445312 C 199.328125 217.429688 198.367188 216.371094 197.457031 215.261719 C 196.546875 214.152344 195.695312 213.003906 194.898438 211.8125 C 194.101562 210.617188 193.367188 209.390625 192.691406 208.125 C 192.015625 206.859375 191.402344 205.566406 190.851562 204.242188 C 190.304688 202.917969 189.820312 201.566406 189.40625 200.195312 C 188.988281 198.824219 188.640625 197.433594 188.363281 196.027344 C 188.082031 194.621094 187.871094 193.207031 187.730469 191.777344 C 187.589844 190.351562 187.519531 188.921875 187.519531 187.488281 C 187.519531 186.054688 187.589844 184.621094 187.730469 183.195312 C 187.871094 181.769531 188.082031 180.351562 188.363281 178.945312 C 188.640625 177.539062 188.988281 176.152344 189.40625 174.777344 C 189.820312 173.40625 190.304688 172.058594 190.851562 170.734375 C 191.402344 169.410156 192.015625 168.113281 192.691406 166.847656 C 193.367188 165.585938 194.101562 164.355469 194.898438 163.164062 C 195.695312 161.972656 196.546875 160.820312 197.457031 159.714844 C 198.367188 158.605469 199.328125 157.542969 200.34375 156.53125 C 201.355469 155.515625 202.417969 154.554688 203.527344 153.644531 C 204.636719 152.734375 205.785156 151.882812 206.976562 151.085938 C 208.167969 150.289062 209.398438 149.550781 210.664062 148.875 C 211.925781 148.199219 213.222656 147.585938 214.546875 147.039062 C 215.871094 146.492188 217.21875 146.007812 218.59375 145.589844 C 219.964844 145.175781 221.351562 144.828125 222.761719 144.546875 C 224.167969 144.269531 225.582031 144.058594 227.007812 143.917969 C 228.4375 143.777344 229.867188 143.707031 231.300781 143.707031 C 232.734375 143.707031 234.164062 143.777344 235.59375 143.917969 C 237.019531 144.058594 238.4375 144.269531 239.84375 144.546875 C 241.25 144.828125 242.636719 145.175781 244.011719 145.589844 C 245.382812 146.007812 246.730469 146.492188 248.054688 147.039062 C 249.378906 147.585938 250.675781 148.199219 251.9375 148.875 C 253.203125 149.550781 254.433594 150.289062 255.625 151.085938 C 256.816406 151.882812 257.96875 152.734375 259.074219 153.644531 C 260.183594 154.554688 261.246094 155.515625 262.257812 156.53125 C 263.273438 157.542969 264.234375 158.605469 265.144531 159.714844 C 266.054688 160.820312 266.90625 161.972656 267.703125 163.164062 C 268.5 164.355469 269.234375 165.585938 269.914062 166.847656 C 270.589844 168.113281 271.199219 169.410156 271.75 170.734375 C 272.296875 172.058594 272.78125 173.40625 273.195312 174.777344 C 273.613281 176.152344 273.960938 177.539062 274.242188 178.945312 C 274.519531 180.351562 274.730469 181.769531 274.871094 183.195312 C 275.011719 184.621094 275.082031 186.054688 275.082031 187.488281 Z M 275.082031 187.488281 " fill-opacity="1" fill-rule="nonzero"/><g clip-path="url(#37af686798)"><path fill="#02111a" d="M 99.894531 275.125 C 99.894531 299.347656 119.503906 318.90625 143.683594 318.90625 C 167.863281 318.90625 187.464844 299.292969 187.464844 275.125 L 187.464844 143.707031 L 231.300781 143.707031 L 231.3125 143.71875 C 255.503906 143.71875 275.105469 124.09375 275.105469 99.925781 C 275.105469 75.757812 255.492188 56.089844 231.3125 56.089844 L 143.683594 56.089844 C 119.496094 56.089844 99.894531 75.703125 99.894531 99.871094 C 99.894531 124.039062 119.503906 143.652344 143.683594 143.652344 C 119.496094 143.71875 99.894531 163.320312 99.894531 187.5 C 99.894531 211.675781 119.503906 231.277344 143.683594 231.277344 C 119.496094 231.277344 99.894531 250.890625 99.894531 275.125 Z M 99.894531 275.125 " fill-opacity="1" fill-rule="nonzero"/></g></svg>