<svg xmlns="http://www.w3.org/2000/svg" xmlns:xlink="http://www.w3.org/1999/xlink" width="500" zoomAndPan="magnify" viewBox="0 0 375 374.999991" height="500" preserveAspectRatio="xMidYMid meet" version="1.0"><defs><clipPath id="def7a29ede"><path d="M 91 52.5 L 284 52.5 L 284 322.5 L 91 322.5 Z M 91 52.5 " clip-rule="nonzero"/></clipPath></defs><g clip-path="url(#def7a29ede)"><path fill="#02111a" d="M 283.125 270.34375 L 258.328125 112.855469 C 257.835938 109.941406 255.394531 107.761719 252.433594 107.761719 C 250.792969 107.761719 249.308594 108.433594 248.214844 109.539062 L 91.875 270.34375 L 178.386719 320.160156 C 180.894531 321.632812 183.910156 322.5 187.117188 322.5 C 190.3125 322.5 193.316406 321.632812 195.902344 320.125 Z M 135.414062 55.71875 C 134.398438 53.804688 132.429688 52.5 130.148438 52.5 C 127.167969 52.5 124.691406 54.738281 124.242188 57.6875 L 98.207031 228.820312 L 163.425781 109.425781 L 135.421875 55.75 Z M 212.824219 132.914062 L 192.789062 93.742188 C 191.765625 91.785156 189.785156 90.480469 187.5 90.480469 C 185.214844 90.480469 183.234375 91.785156 182.222656 93.707031 L 182.210938 93.742188 L 94.238281 254.820312 Z M 212.824219 132.914062 " fill-opacity="1" fill-rule="nonzero"/></g></svg>