<svg xmlns="http://www.w3.org/2000/svg" xmlns:xlink="http://www.w3.org/1999/xlink" width="500" zoomAndPan="magnify" viewBox="0 0 375 374.999991" height="500" preserveAspectRatio="xMidYMid meet" version="1.0"><defs><clipPath id="312a330556"><path d="M 56.253906 56 L 318.753906 56 L 318.753906 313 L 56.253906 313 Z M 56.253906 56 " clip-rule="nonzero"/></clipPath></defs><g clip-path="url(#312a330556)"><path fill="#02111a" d="M 144.046875 262.328125 C 144.046875 263.386719 142.832031 264.234375 141.296875 264.234375 C 139.550781 264.390625 138.332031 263.542969 138.332031 262.328125 C 138.332031 261.269531 139.550781 260.421875 141.085938 260.421875 C 142.671875 260.261719 144.046875 261.109375 144.046875 262.328125 Z M 127.589844 259.945312 C 127.21875 261.003906 128.277344 262.222656 129.867188 262.539062 C 131.242188 263.066406 132.828125 262.539062 133.144531 261.480469 C 133.464844 260.421875 132.457031 259.203125 130.871094 258.730469 C 129.496094 258.359375 127.960938 258.886719 127.589844 259.945312 Z M 150.980469 259.046875 C 149.445312 259.417969 148.386719 260.421875 148.546875 261.640625 C 148.707031 262.699219 150.082031 263.386719 151.667969 263.015625 C 153.203125 262.644531 154.261719 261.640625 154.101562 260.582031 C 153.945312 259.574219 152.515625 258.886719 150.980469 259.046875 Z M 185.804688 56.253906 C 112.402344 56.253906 56.253906 111.980469 56.253906 185.378906 C 56.253906 244.070312 93.191406 294.292969 145.953125 311.96875 C 152.726562 313.183594 155.109375 309.003906 155.109375 305.5625 C 155.109375 302.28125 154.949219 284.183594 154.949219 273.070312 C 154.949219 273.070312 117.90625 281.007812 110.125 257.300781 C 110.125 257.300781 104.09375 241.898438 95.414062 237.929688 C 95.414062 237.929688 83.292969 229.621094 96.261719 229.78125 C 96.261719 229.78125 109.4375 230.839844 116.6875 243.433594 C 128.277344 263.863281 147.699219 257.988281 155.265625 254.496094 C 156.484375 246.027344 159.925781 240.152344 163.734375 236.660156 C 134.152344 233.378906 104.304688 229.09375 104.304688 178.183594 C 104.304688 163.628906 108.328125 156.328125 116.792969 147.011719 C 115.417969 143.574219 110.917969 129.390625 118.167969 111.078125 C 129.230469 107.640625 154.683594 125.367188 154.683594 125.367188 C 165.269531 122.402344 176.648438 120.871094 187.917969 120.871094 C 199.191406 120.871094 210.570312 122.402344 221.152344 125.367188 C 221.152344 125.367188 246.609375 107.585938 257.667969 111.078125 C 264.917969 129.441406 260.421875 143.574219 259.046875 147.011719 C 267.511719 156.378906 272.699219 163.683594 272.699219 178.183594 C 272.699219 229.25 241.527344 233.328125 211.945312 236.660156 C 216.816406 240.839844 220.941406 248.78125 220.941406 261.214844 C 220.941406 279.050781 220.785156 301.117188 220.785156 305.457031 C 220.785156 308.898438 223.21875 313.078125 229.9375 311.863281 C 282.859375 294.292969 318.742188 244.070312 318.742188 185.378906 C 318.742188 111.980469 259.203125 56.253906 185.804688 56.253906 Z M 107.691406 238.777344 C 107.003906 239.308594 107.164062 240.523438 108.0625 241.53125 C 108.910156 242.375 110.125 242.746094 110.8125 242.058594 C 111.5 241.53125 111.34375 240.3125 110.441406 239.308594 C 109.597656 238.460938 108.378906 238.089844 107.691406 238.777344 Z M 101.976562 234.492188 C 101.605469 235.179688 102.132812 236.027344 103.191406 236.554688 C 104.039062 237.085938 105.097656 236.925781 105.46875 236.183594 C 105.839844 235.496094 105.308594 234.648438 104.25 234.121094 C 103.191406 233.804688 102.347656 233.960938 101.976562 234.492188 Z M 119.121094 253.332031 C 118.277344 254.019531 118.59375 255.605469 119.808594 256.613281 C 121.027344 257.828125 122.5625 257.988281 123.25 257.140625 C 123.9375 256.453125 123.621094 254.867188 122.5625 253.859375 C 121.398438 252.644531 119.808594 252.484375 119.121094 253.332031 Z M 113.089844 245.550781 C 112.242188 246.082031 112.242188 247.457031 113.089844 248.671875 C 113.9375 249.890625 115.363281 250.421875 116.054688 249.890625 C 116.898438 249.203125 116.898438 247.828125 116.054688 246.609375 C 115.3125 245.394531 113.9375 244.863281 113.089844 245.550781 Z M 113.089844 245.550781 " fill-opacity="1" fill-rule="nonzero"/></g></svg>