<svg xmlns="http://www.w3.org/2000/svg" xmlns:xlink="http://www.w3.org/1999/xlink" width="500" zoomAndPan="magnify" viewBox="0 0 375 374.999991" height="500" preserveAspectRatio="xMidYMid meet" version="1.0"><defs><clipPath id="720b5dd0df"><path d="M 71.457031 71.457031 L 303.207031 71.457031 L 303.207031 303.207031 L 71.457031 303.207031 Z M 71.457031 71.457031 " clip-rule="nonzero"/></clipPath><clipPath id="6e6cd79e81"><path d="M 71.457031 108.957031 L 71.457031 266.042969 C 71.457031 286.753906 88.246094 303.542969 108.957031 303.542969 L 266.042969 303.542969 C 286.753906 303.542969 303.542969 286.753906 303.542969 266.042969 L 303.542969 108.957031 C 303.542969 88.246094 286.753906 71.457031 266.042969 71.457031 L 108.957031 71.457031 C 88.246094 71.457031 71.457031 88.246094 71.457031 108.957031 Z M 71.457031 108.957031 " clip-rule="nonzero"/></clipPath></defs><g clip-path="url(#720b5dd0df)"><g clip-path="url(#6e6cd79e81)"><path fill="#02111a" d="M 274.527344 71.457031 L 100.46875 71.457031 C 84.511719 71.457031 71.457031 84.511719 71.457031 100.46875 L 71.457031 303.535156 L 303.535156 303.535156 L 303.535156 100.46875 C 303.535156 84.511719 290.480469 71.457031 274.527344 71.457031 Z M 119.808594 119.808594 L 197.167969 119.808594 L 197.167969 139.148438 L 119.808594 139.148438 Z M 119.808594 158.488281 L 226.175781 158.488281 L 226.175781 177.828125 L 119.808594 177.828125 Z M 158.488281 255.1875 L 119.808594 255.1875 L 119.808594 235.847656 L 158.488281 235.847656 Z M 255.1875 216.507812 L 119.808594 216.507812 L 119.808594 197.167969 L 255.1875 197.167969 Z M 255.1875 216.507812 " fill-opacity="1" fill-rule="nonzero"/></g></g></svg>