<svg xmlns="http://www.w3.org/2000/svg" xmlns:xlink="http://www.w3.org/1999/xlink" width="500" zoomAndPan="magnify" viewBox="0 0 375 374.999991" height="500" preserveAspectRatio="xMidYMid meet" version="1.0"><defs><clipPath id="876bb858e2"><path d="M 71.472656 71 L 303.222656 71 L 303.222656 304 L 71.472656 304 Z M 71.472656 71 " clip-rule="nonzero"/></clipPath></defs><g clip-path="url(#876bb858e2)"><path fill="#02111a" d="M 303.527344 104.621094 C 303.527344 86.335938 288.660156 71.46875 270.375 71.46875 L 104.621094 71.46875 C 86.339844 71.46875 71.472656 86.335938 71.472656 104.621094 L 71.472656 270.371094 C 71.472656 288.65625 86.339844 303.523438 104.621094 303.523438 L 270.375 303.523438 C 288.660156 303.523438 303.527344 288.65625 303.527344 270.371094 Z M 165.175781 285.34375 C 147.71875 285.34375 137.617188 276.328125 132.4375 265.398438 L 150.207031 254.679688 C 153.625 260.738281 156.730469 265.867188 164.242188 265.867188 C 171.390625 265.867188 175.949219 263.070312 175.949219 252.140625 L 175.949219 178.015625 L 197.753906 178.015625 L 197.753906 252.449219 C 197.753906 275.035156 184.496094 285.34375 165.175781 285.34375 Z M 209.617188 263.070312 L 227.382812 252.8125 C 232.046875 260.425781 238.15625 266.074219 248.878906 266.074219 C 257.894531 266.074219 263.695312 261.566406 263.695312 255.300781 C 263.695312 247.839844 257.789062 245.199219 247.792969 240.796875 L 242.355469 238.464844 C 226.605469 231.78125 216.195312 223.339844 216.195312 205.574219 C 216.195312 189.207031 228.679688 176.773438 248.101562 176.773438 C 261.984375 176.773438 271.929688 181.589844 279.078125 194.230469 L 262.089844 205.105469 C 258.359375 198.425781 254.320312 195.785156 248.050781 195.785156 C 241.679688 195.785156 237.640625 199.824219 237.640625 205.105469 C 237.640625 211.632812 241.679688 214.277344 251.054688 218.367188 L 256.496094 220.699219 C 275.039062 228.625 285.449219 236.753906 285.449219 254.988281 C 285.449219 274.566406 270.015625 285.34375 249.347656 285.34375 C 229.09375 285.34375 215.988281 275.707031 209.617188 263.070312 Z M 209.617188 263.070312 " fill-opacity="1" fill-rule="nonzero"/></g></svg>