<svg xmlns="http://www.w3.org/2000/svg" xmlns:xlink="http://www.w3.org/1999/xlink" width="500" zoomAndPan="magnify" viewBox="0 0 375 374.999991" height="500" preserveAspectRatio="xMidYMid meet" version="1.0"><defs><clipPath id="0eefc4566f"><path d="M 56.402344 82.621094 L 318.902344 82.621094 L 318.902344 292.621094 L 56.402344 292.621094 Z M 56.402344 82.621094 " clip-rule="nonzero"/></clipPath></defs><g clip-path="url(#0eefc4566f)"><path fill="#02111a" d="M 121.949219 108.84375 C 121.949219 94.382812 133.707031 82.625 148.167969 82.625 L 292.367188 82.625 C 306.828125 82.625 318.585938 94.382812 318.585938 108.84375 L 318.585938 226.828125 C 318.585938 241.289062 306.828125 253.042969 292.367188 253.042969 L 194.375 253.042969 C 189.542969 242.597656 182.128906 233.585938 172.910156 226.828125 L 213.710938 226.828125 L 213.710938 213.71875 C 213.710938 206.464844 219.570312 200.609375 226.820312 200.609375 L 253.039062 200.609375 C 260.292969 200.609375 266.148438 206.464844 266.148438 213.71875 L 266.148438 226.828125 L 292.367188 226.828125 L 292.367188 108.84375 L 148.167969 108.84375 L 148.167969 128.957031 C 140.464844 124.492188 131.492188 121.953125 121.949219 121.953125 Z M 121.949219 135.0625 C 123.238281 135.0625 124.519531 135.125 125.804688 135.25 C 127.085938 135.378906 128.359375 135.566406 129.621094 135.816406 C 130.882812 136.070312 132.132812 136.382812 133.363281 136.753906 C 134.597656 137.128906 135.808594 137.5625 137 138.054688 C 138.1875 138.546875 139.351562 139.097656 140.488281 139.707031 C 141.625 140.3125 142.726562 140.972656 143.796875 141.691406 C 144.867188 142.40625 145.902344 143.171875 146.898438 143.988281 C 147.894531 144.804688 148.847656 145.671875 149.757812 146.582031 C 150.667969 147.492188 151.53125 148.445312 152.347656 149.441406 C 153.167969 150.4375 153.933594 151.46875 154.648438 152.539062 C 155.363281 153.613281 156.023438 154.714844 156.632812 155.851562 C 157.238281 156.988281 157.789062 158.148438 158.28125 159.339844 C 158.773438 160.53125 159.207031 161.742188 159.582031 162.972656 C 159.957031 164.207031 160.269531 165.453125 160.519531 166.71875 C 160.769531 167.980469 160.960938 169.253906 161.085938 170.535156 C 161.210938 171.816406 161.277344 173.101562 161.277344 174.390625 C 161.277344 175.679688 161.210938 176.960938 161.085938 178.246094 C 160.960938 179.527344 160.769531 180.800781 160.519531 182.0625 C 160.269531 183.324219 159.957031 184.574219 159.582031 185.804688 C 159.207031 187.039062 158.773438 188.25 158.28125 189.441406 C 157.789062 190.628906 157.238281 191.792969 156.632812 192.929688 C 156.023438 194.066406 155.363281 195.167969 154.648438 196.238281 C 153.933594 197.308594 153.167969 198.34375 152.347656 199.339844 C 151.53125 200.335938 150.667969 201.289062 149.757812 202.199219 C 148.847656 203.109375 147.894531 203.972656 146.898438 204.789062 C 145.902344 205.605469 144.867188 206.375 143.796875 207.089844 C 142.726562 207.804688 141.625 208.464844 140.488281 209.074219 C 139.351562 209.679688 138.1875 210.230469 137 210.722656 C 135.808594 211.214844 134.597656 211.648438 133.363281 212.023438 C 132.132812 212.398438 130.882812 212.710938 129.621094 212.960938 C 128.359375 213.210938 127.085938 213.402344 125.804688 213.527344 C 124.519531 213.652344 123.238281 213.71875 121.949219 213.71875 C 120.660156 213.71875 119.375 213.652344 118.09375 213.527344 C 116.8125 213.402344 115.539062 213.210938 114.277344 212.960938 C 113.011719 212.710938 111.765625 212.398438 110.53125 212.023438 C 109.300781 211.648438 108.089844 211.214844 106.898438 210.722656 C 105.707031 210.230469 104.546875 209.679688 103.410156 209.074219 C 102.273438 208.464844 101.171875 207.804688 100.097656 207.089844 C 99.027344 206.375 97.996094 205.605469 97 204.789062 C 96.003906 203.972656 95.050781 203.109375 94.140625 202.199219 C 93.230469 201.289062 92.363281 200.335938 91.546875 199.339844 C 90.730469 198.34375 89.964844 197.308594 89.25 196.238281 C 88.53125 195.167969 87.871094 194.066406 87.265625 192.929688 C 86.65625 191.792969 86.105469 190.628906 85.613281 189.441406 C 85.121094 188.25 84.6875 187.039062 84.3125 185.804688 C 83.941406 184.574219 83.628906 183.324219 83.375 182.0625 C 83.125 180.800781 82.9375 179.527344 82.808594 178.246094 C 82.683594 176.960938 82.621094 175.679688 82.621094 174.390625 C 82.621094 173.101562 82.683594 171.816406 82.808594 170.535156 C 82.9375 169.253906 83.125 167.980469 83.375 166.71875 C 83.628906 165.453125 83.941406 164.207031 84.3125 162.972656 C 84.6875 161.742188 85.121094 160.53125 85.613281 159.339844 C 86.105469 158.148438 86.65625 156.988281 87.265625 155.851562 C 87.871094 154.714844 88.53125 153.613281 89.25 152.539062 C 89.964844 151.46875 90.730469 150.4375 91.546875 149.441406 C 92.363281 148.445312 93.230469 147.492188 94.140625 146.582031 C 95.050781 145.671875 96.003906 144.804688 97 143.988281 C 97.996094 143.171875 99.027344 142.40625 100.097656 141.691406 C 101.171875 140.972656 102.273438 140.3125 103.410156 139.707031 C 104.546875 139.097656 105.707031 138.546875 106.898438 138.054688 C 108.089844 137.5625 109.300781 137.128906 110.53125 136.753906 C 111.765625 136.382812 113.011719 136.070312 114.277344 135.816406 C 115.539062 135.566406 116.8125 135.378906 118.09375 135.25 C 119.375 135.125 120.660156 135.0625 121.949219 135.0625 Z M 111.011719 226.828125 L 132.84375 226.828125 C 163.039062 226.828125 187.496094 251.285156 187.496094 281.433594 C 187.496094 287.457031 182.621094 292.371094 176.554688 292.371094 L 67.339844 292.371094 C 61.277344 292.371094 56.402344 287.496094 56.402344 281.433594 C 56.402344 251.285156 80.859375 226.828125 111.011719 226.828125 Z M 111.011719 226.828125 " fill-opacity="1" fill-rule="nonzero"/></g></svg>