<svg xmlns="http://www.w3.org/2000/svg" xmlns:xlink="http://www.w3.org/1999/xlink" width="500" zoomAndPan="magnify" viewBox="0 0 375 374.999991" height="500" preserveAspectRatio="xMidYMid meet" version="1.0"><path fill="#02111a" d="M 142.5 142.5 L 82.5 142.5 L 82.5 82.5 L 142.5 82.5 Z M 97.5 127.5 L 127.5 127.5 L 127.5 97.5 L 97.5 97.5 Z M 97.5 127.5 " fill-opacity="1" fill-rule="nonzero"/><path fill="#02111a" d="M 292.5 292.5 L 232.5 292.5 L 232.5 232.5 L 292.5 232.5 Z M 247.5 277.5 L 277.5 277.5 L 277.5 247.5 L 247.5 247.5 Z M 247.5 277.5 " fill-opacity="1" fill-rule="nonzero"/><path fill="#02111a" d="M 217.5 270 L 127.5 270 C 126.027344 270 124.554688 269.929688 123.089844 269.785156 C 121.621094 269.640625 120.167969 269.421875 118.722656 269.136719 C 117.277344 268.847656 115.847656 268.488281 114.4375 268.0625 C 113.027344 267.632812 111.640625 267.136719 110.277344 266.574219 C 108.917969 266.011719 107.585938 265.382812 106.289062 264.6875 C 104.988281 263.992188 103.726562 263.234375 102.5 262.417969 C 101.273438 261.597656 100.089844 260.71875 98.953125 259.785156 C 97.8125 258.851562 96.722656 257.863281 95.679688 256.820312 C 94.636719 255.777344 93.648438 254.6875 92.714844 253.546875 C 91.78125 252.410156 90.902344 251.226562 90.082031 250 C 89.265625 248.773438 88.507812 247.511719 87.8125 246.210938 C 87.117188 244.914062 86.488281 243.582031 85.925781 242.21875 C 85.363281 240.859375 84.867188 239.472656 84.4375 238.0625 C 84.011719 236.652344 83.652344 235.222656 83.363281 233.777344 C 83.078125 232.332031 82.859375 230.878906 82.714844 229.410156 C 82.570312 227.945312 82.5 226.472656 82.5 225 C 82.5 223.527344 82.570312 222.054688 82.714844 220.589844 C 82.859375 219.121094 83.078125 217.667969 83.363281 216.222656 C 83.652344 214.777344 84.011719 213.347656 84.4375 211.9375 C 84.867188 210.527344 85.363281 209.140625 85.925781 207.777344 C 86.488281 206.417969 87.117188 205.085938 87.8125 203.789062 C 88.507812 202.488281 89.265625 201.226562 90.082031 200 C 90.902344 198.773438 91.78125 197.589844 92.714844 196.453125 C 93.648438 195.3125 94.636719 194.222656 95.679688 193.179688 C 96.722656 192.136719 97.8125 191.148438 98.953125 190.214844 C 100.089844 189.28125 101.273438 188.402344 102.5 187.582031 C 103.726562 186.765625 104.988281 186.007812 106.289062 185.3125 C 107.585938 184.617188 108.917969 183.988281 110.277344 183.425781 C 111.640625 182.863281 113.027344 182.367188 114.4375 181.9375 C 115.847656 181.511719 117.277344 181.152344 118.722656 180.863281 C 120.167969 180.578125 121.621094 180.359375 123.089844 180.214844 C 124.554688 180.070312 126.027344 180 127.5 180 L 127.5 195 C 126.515625 195 125.539062 195.046875 124.558594 195.144531 C 123.582031 195.242188 122.609375 195.382812 121.648438 195.578125 C 120.683594 195.769531 119.730469 196.007812 118.792969 196.292969 C 117.851562 196.578125 116.925781 196.90625 116.019531 197.285156 C 115.113281 197.660156 114.226562 198.078125 113.359375 198.542969 C 112.492188 199.003906 111.648438 199.511719 110.832031 200.054688 C 110.015625 200.601562 109.226562 201.1875 108.46875 201.808594 C 107.707031 202.433594 106.980469 203.09375 106.285156 203.785156 C 105.59375 204.480469 104.933594 205.207031 104.308594 205.96875 C 103.6875 206.726562 103.101562 207.515625 102.554688 208.332031 C 102.011719 209.148438 101.503906 209.992188 101.042969 210.859375 C 100.578125 211.722656 100.160156 212.613281 99.785156 213.519531 C 99.40625 214.425781 99.078125 215.351562 98.792969 216.292969 C 98.507812 217.230469 98.269531 218.183594 98.078125 219.148438 C 97.882812 220.109375 97.742188 221.082031 97.644531 222.058594 C 97.546875 223.039062 97.5 224.015625 97.5 225 C 97.5 225.984375 97.546875 226.960938 97.644531 227.941406 C 97.742188 228.917969 97.882812 229.890625 98.078125 230.851562 C 98.269531 231.816406 98.507812 232.769531 98.792969 233.707031 C 99.078125 234.648438 99.40625 235.574219 99.785156 236.480469 C 100.160156 237.386719 100.578125 238.273438 101.042969 239.140625 C 101.503906 240.007812 102.011719 240.851562 102.554688 241.667969 C 103.101562 242.484375 103.6875 243.273438 104.308594 244.03125 C 104.933594 244.792969 105.59375 245.519531 106.285156 246.214844 C 106.980469 246.90625 107.707031 247.566406 108.46875 248.191406 C 109.226562 248.8125 110.015625 249.398438 110.832031 249.945312 C 111.648438 250.488281 112.492188 250.996094 113.359375 251.457031 C 114.226562 251.921875 115.113281 252.339844 116.019531 252.714844 C 116.925781 253.09375 117.851562 253.421875 118.792969 253.707031 C 119.730469 253.992188 120.683594 254.230469 121.648438 254.421875 C 122.609375 254.613281 123.582031 254.757812 124.558594 254.855469 C 125.539062 254.953125 126.515625 255 127.5 255 L 217.5 255 Z M 217.5 270 " fill-opacity="1" fill-rule="nonzero"/><path fill="#02111a" d="M 247.5 195 L 247.5 180 C 248.484375 180 249.460938 179.953125 250.441406 179.855469 C 251.417969 179.757812 252.390625 179.613281 253.351562 179.421875 C 254.316406 179.230469 255.269531 178.992188 256.207031 178.707031 C 257.148438 178.421875 258.074219 178.09375 258.980469 177.714844 C 259.886719 177.339844 260.773438 176.921875 261.640625 176.457031 C 262.507812 175.996094 263.351562 175.488281 264.167969 174.945312 C 264.984375 174.398438 265.773438 173.8125 266.53125 173.191406 C 267.292969 172.566406 268.019531 171.90625 268.714844 171.214844 C 269.40625 170.519531 270.066406 169.792969 270.691406 169.03125 C 271.3125 168.273438 271.898438 167.484375 272.445312 166.667969 C 272.988281 165.851562 273.496094 165.007812 273.957031 164.140625 C 274.421875 163.273438 274.839844 162.386719 275.214844 161.480469 C 275.59375 160.574219 275.921875 159.648438 276.207031 158.707031 C 276.492188 157.769531 276.730469 156.816406 276.921875 155.851562 C 277.113281 154.890625 277.257812 153.917969 277.355469 152.941406 C 277.453125 151.960938 277.5 150.984375 277.5 150 C 277.5 149.015625 277.453125 148.039062 277.355469 147.058594 C 277.257812 146.082031 277.113281 145.109375 276.921875 144.148438 C 276.730469 143.183594 276.492188 142.230469 276.207031 141.292969 C 275.921875 140.351562 275.59375 139.425781 275.214844 138.519531 C 274.839844 137.613281 274.421875 136.722656 273.957031 135.859375 C 273.496094 134.992188 272.988281 134.148438 272.445312 133.332031 C 271.898438 132.515625 271.3125 131.726562 270.691406 130.96875 C 270.066406 130.207031 269.40625 129.480469 268.714844 128.785156 C 268.019531 128.09375 267.292969 127.433594 266.53125 126.808594 C 265.773438 126.1875 264.984375 125.601562 264.167969 125.054688 C 263.351562 124.511719 262.507812 124.003906 261.640625 123.542969 C 260.773438 123.078125 259.886719 122.660156 258.980469 122.285156 C 258.074219 121.90625 257.148438 121.578125 256.207031 121.292969 C 255.269531 121.007812 254.316406 120.769531 253.351562 120.578125 C 252.390625 120.382812 251.417969 120.242188 250.441406 120.144531 C 249.460938 120.046875 248.484375 120 247.5 120 L 157.5 120 L 157.5 105 L 247.5 105 C 248.972656 105 250.445312 105.070312 251.910156 105.214844 C 253.378906 105.359375 254.832031 105.578125 256.277344 105.863281 C 257.722656 106.152344 259.152344 106.511719 260.5625 106.9375 C 261.972656 107.367188 263.359375 107.863281 264.722656 108.425781 C 266.082031 108.988281 267.414062 109.617188 268.710938 110.3125 C 270.011719 111.007812 271.273438 111.765625 272.5 112.582031 C 273.726562 113.402344 274.910156 114.28125 276.046875 115.214844 C 277.1875 116.148438 278.277344 117.136719 279.320312 118.179688 C 280.363281 119.222656 281.351562 120.3125 282.285156 121.453125 C 283.21875 122.589844 284.097656 123.773438 284.917969 125 C 285.734375 126.226562 286.492188 127.488281 287.1875 128.789062 C 287.882812 130.085938 288.511719 131.417969 289.074219 132.777344 C 289.636719 134.140625 290.132812 135.527344 290.5625 136.9375 C 290.988281 138.347656 291.347656 139.777344 291.636719 141.222656 C 291.921875 142.667969 292.140625 144.121094 292.285156 145.589844 C 292.429688 147.054688 292.5 148.527344 292.5 150 C 292.5 151.472656 292.429688 152.945312 292.285156 154.410156 C 292.140625 155.878906 291.921875 157.332031 291.636719 158.777344 C 291.347656 160.222656 290.988281 161.652344 290.5625 163.0625 C 290.132812 164.472656 289.636719 165.859375 289.074219 167.222656 C 288.511719 168.582031 287.882812 169.914062 287.1875 171.210938 C 286.492188 172.511719 285.734375 173.773438 284.917969 175 C 284.097656 176.226562 283.21875 177.410156 282.285156 178.546875 C 281.351562 179.6875 280.363281 180.777344 279.320312 181.820312 C 278.277344 182.863281 277.1875 183.851562 276.046875 184.785156 C 274.910156 185.71875 273.726562 186.597656 272.5 187.417969 C 271.273438 188.234375 270.011719 188.992188 268.710938 189.6875 C 267.414062 190.382812 266.082031 191.011719 264.722656 191.574219 C 263.359375 192.136719 261.972656 192.632812 260.5625 193.0625 C 259.152344 193.488281 257.722656 193.847656 256.277344 194.136719 C 254.832031 194.421875 253.378906 194.640625 251.910156 194.785156 C 250.445312 194.929688 248.972656 195 247.5 195 Z M 247.5 195 " fill-opacity="1" fill-rule="nonzero"/><path fill="#02111a" d="M 210 150 L 165 150 L 142.5 180 L 187.5 225 L 232.5 180 Z M 210 150 " fill-opacity="1" fill-rule="nonzero"/></svg>