<svg xmlns="http://www.w3.org/2000/svg" xmlns:xlink="http://www.w3.org/1999/xlink" width="500" zoomAndPan="magnify" viewBox="0 0 375 374.999991" height="500" preserveAspectRatio="xMidYMid meet" version="1.0"><defs><clipPath id="841cb9f32a"><path d="M 79.054688 63.5625 L 295.804688 63.5625 L 295.804688 311.0625 L 79.054688 311.0625 Z M 79.054688 63.5625 " clip-rule="nonzero"/></clipPath></defs><g clip-path="url(#841cb9f32a)"><path fill="#000000" d="M 295.804688 102.238281 L 295.804688 125.441406 C 295.804688 146.804688 247.28125 164.109375 187.429688 164.109375 C 127.582031 164.109375 79.054688 146.804688 79.054688 125.441406 L 79.054688 102.238281 C 79.054688 80.871094 127.582031 63.566406 187.429688 63.566406 C 247.28125 63.566406 295.804688 80.871094 295.804688 102.238281 Z M 269.292969 167.351562 C 279.355469 163.773438 288.597656 159.179688 295.804688 153.523438 L 295.804688 202.78125 C 295.804688 224.148438 247.28125 241.453125 187.429688 241.453125 C 127.582031 241.453125 79.054688 224.148438 79.054688 202.78125 L 79.054688 153.523438 C 86.265625 159.230469 95.507812 163.773438 105.570312 167.351562 C 127.292969 175.085938 156.226562 179.578125 187.429688 179.578125 C 218.636719 179.578125 247.570312 175.085938 269.292969 167.351562 Z M 79.054688 230.867188 C 86.265625 236.570312 95.507812 241.117188 105.570312 244.691406 C 127.292969 252.425781 156.226562 256.921875 187.429688 256.921875 C 218.636719 256.921875 247.570312 252.425781 269.292969 244.691406 C 279.355469 241.117188 288.597656 236.523438 295.804688 230.867188 L 295.804688 272.390625 C 295.804688 293.757812 247.28125 311.0625 187.429688 311.0625 C 127.582031 311.0625 79.054688 293.757812 79.054688 272.390625 Z M 79.054688 230.867188 " fill-opacity="1" fill-rule="nonzero"/></g></svg>