<svg xmlns="http://www.w3.org/2000/svg" xmlns:xlink="http://www.w3.org/1999/xlink" width="500" zoomAndPan="magnify" viewBox="0 0 375 374.999991" height="500" preserveAspectRatio="xMidYMid meet" version="1.0"><defs><clipPath id="c932a6e316"><path d="M 45.007812 102.003906 L 330 102.003906 L 330 273 L 45.007812 273 Z M 45.007812 102.003906 " clip-rule="nonzero"/></clipPath><clipPath id="491655283d"><path d="M 187.496094 102.003906 C 149.597656 102.003906 125.910156 120.953125 116.4375 158.851562 C 130.648438 139.902344 147.226562 132.796875 166.175781 137.535156 C 176.988281 140.238281 184.71875 148.082031 193.269531 156.761719 C 207.203125 170.90625 223.332031 187.277344 258.554688 187.277344 C 296.453125 187.277344 320.140625 168.328125 329.617188 130.429688 C 315.402344 149.378906 298.824219 156.484375 279.875 151.746094 C 269.0625 149.042969 261.335938 141.199219 252.78125 132.519531 C 238.847656 118.375 222.71875 102.003906 187.496094 102.003906 Z M 116.4375 187.277344 C 78.535156 187.277344 54.851562 206.226562 45.375 244.125 C 59.585938 225.175781 76.167969 218.070312 95.117188 222.804688 C 105.929688 225.507812 113.65625 233.351562 122.210938 242.035156 C 136.144531 256.179688 152.273438 272.546875 187.496094 272.546875 C 225.394531 272.546875 249.082031 253.597656 258.554688 215.699219 C 244.34375 234.648438 227.761719 241.757812 208.8125 237.019531 C 198.003906 234.316406 190.273438 226.472656 181.722656 217.789062 C 167.785156 203.644531 151.660156 187.277344 116.4375 187.277344 Z M 116.4375 187.277344 " clip-rule="nonzero"/></clipPath></defs><g clip-path="url(#c932a6e316)"><g clip-path="url(#491655283d)"><path fill="#02111a" d="M 45.375 102.003906 L 45.375 272.546875 L 329.617188 272.546875 L 329.617188 102.003906 Z M 45.375 102.003906 " fill-opacity="1" fill-rule="nonzero"/></g></g></svg>