<svg xmlns="http://www.w3.org/2000/svg" xmlns:xlink="http://www.w3.org/1999/xlink" width="500" zoomAndPan="magnify" viewBox="0 0 375 374.999991" height="500" preserveAspectRatio="xMidYMid meet" version="1.0"><path fill="#02111a" d="M 154.6875 103.125 L 154.6875 62.34375 C 147.65625 64.21875 141.09375 67.96875 135.9375 73.125 L 111.09375 97.96875 C 105.9375 103.125 102.1875 109.6875 100.3125 117.1875 L 140.625 117.1875 C 148.59375 117.1875 154.6875 111.09375 154.6875 103.125 Z M 154.6875 103.125 " fill-opacity="1" fill-rule="nonzero"/><path fill="#02111a" d="M 103.125 150 L 271.875 150 C 273.28125 150 275.15625 150 276.5625 150.46875 L 276.5625 103.125 C 276.5625 79.6875 257.8125 60.9375 234.375 60.9375 L 164.0625 60.9375 L 164.0625 103.125 C 164.0625 116.25 153.75 126.5625 140.625 126.5625 L 98.4375 126.5625 L 98.4375 150.46875 C 99.84375 150 101.71875 150 103.125 150 Z M 271.875 262.5 L 103.125 262.5 C 101.71875 262.5 99.84375 262.5 98.4375 262.03125 L 98.4375 271.875 C 98.4375 295.3125 117.1875 314.0625 140.625 314.0625 L 234.375 314.0625 C 257.8125 314.0625 276.5625 295.3125 276.5625 271.875 L 276.5625 262.03125 C 275.15625 262.5 273.28125 262.5 271.875 262.5 Z M 271.875 159.375 L 103.125 159.375 C 90 159.375 79.6875 169.6875 79.6875 182.8125 L 79.6875 229.6875 C 79.6875 242.8125 90 253.125 103.125 253.125 L 271.875 253.125 C 285 253.125 295.3125 242.8125 295.3125 229.6875 L 295.3125 182.8125 C 295.3125 169.6875 285 159.375 271.875 159.375 Z M 153.75 231.5625 C 155.15625 233.90625 154.6875 236.71875 152.34375 238.125 C 151.875 238.59375 150.9375 239.0625 150 239.0625 C 148.59375 239.0625 147.1875 238.125 146.25 237.1875 L 131.25 214.6875 L 116.25 237.1875 C 115.3125 238.125 113.90625 239.0625 112.5 239.0625 C 111.5625 239.0625 110.625 238.59375 109.6875 238.125 C 107.34375 236.71875 106.875 233.90625 108.28125 231.5625 L 125.15625 206.25 L 108.28125 180.9375 C 106.875 178.59375 107.34375 175.78125 109.6875 174.375 C 112.03125 172.96875 114.84375 173.4375 116.25 175.78125 L 131.25 198.28125 L 146.25 175.78125 C 147.65625 173.4375 150.46875 172.96875 152.8125 174.375 C 155.15625 175.78125 155.625 178.59375 154.21875 180.9375 L 136.875 206.25 Z M 210.9375 234.375 C 210.9375 237.1875 209.0625 239.0625 206.25 239.0625 C 203.4375 239.0625 201.5625 237.1875 201.5625 234.375 L 201.5625 192.65625 L 190.3125 208.59375 C 189.375 210 187.96875 210.46875 186.5625 210.46875 C 185.15625 210.46875 183.75 209.53125 182.8125 208.125 L 173.90625 194.0625 L 173.90625 234.375 C 173.90625 237.1875 172.03125 239.0625 169.21875 239.0625 C 166.40625 239.0625 164.53125 237.1875 164.53125 234.375 L 164.53125 176.71875 C 164.53125 176.25 164.53125 176.25 165 175.78125 C 165 175.3125 165.46875 175.3125 165.46875 174.84375 L 166.40625 173.90625 L 166.875 173.90625 C 166.875 173.90625 167.34375 173.90625 167.8125 173.4375 L 170.625 173.4375 C 170.625 173.4375 171.09375 173.4375 171.09375 173.90625 C 171.5625 173.90625 171.5625 174.375 172.03125 174.375 L 172.96875 175.3125 L 187.03125 197.34375 L 202.96875 174.84375 L 203.90625 173.90625 C 204.375 173.90625 204.375 173.4375 204.84375 173.4375 C 204.84375 173.4375 205.3125 173.4375 205.3125 172.96875 L 208.125 172.96875 C 208.59375 172.96875 208.59375 172.96875 209.0625 173.4375 L 209.53125 173.4375 L 210.46875 174.375 C 210.46875 174.84375 210.9375 174.84375 210.9375 175.3125 C 210.9375 175.78125 210.9375 175.78125 211.40625 176.25 L 211.40625 234.375 Z M 262.5 239.0625 L 234.375 239.0625 C 226.40625 239.0625 220.3125 232.96875 220.3125 225 L 220.3125 178.125 C 220.3125 175.3125 222.1875 173.4375 225 173.4375 C 227.8125 173.4375 229.6875 175.3125 229.6875 178.125 L 229.6875 225 C 229.6875 227.8125 231.5625 229.6875 234.375 229.6875 L 262.5 229.6875 C 265.3125 229.6875 267.1875 231.5625 267.1875 234.375 C 267.1875 237.1875 265.3125 239.0625 262.5 239.0625 Z M 262.5 239.0625 " fill-opacity="1" fill-rule="nonzero"/></svg>