<svg xmlns="http://www.w3.org/2000/svg" xmlns:xlink="http://www.w3.org/1999/xlink" width="500" zoomAndPan="magnify" viewBox="0 0 375 374.999991" height="500" preserveAspectRatio="xMidYMid meet" version="1.0"><path fill="#02111a" d="M 260.992188 272.484375 C 284.832031 251.839844 300 221.4375 300 187.5 C 300 125.464844 249.535156 75 187.5 75 C 125.464844 75 75 125.464844 75 187.5 C 75 221.4375 90.167969 251.839844 114.007812 272.484375 L 104.464844 288.394531 C 103.570312 289.878906 103.125 291.488281 103.125 293.222656 L 103.125 301.789062 C 103.125 301.988281 103.136719 302.1875 103.164062 302.386719 C 103.1875 302.582031 103.226562 302.777344 103.277344 302.96875 C 103.324219 303.164062 103.386719 303.351562 103.460938 303.535156 C 103.535156 303.722656 103.621094 303.898438 103.71875 304.074219 C 103.816406 304.246094 103.921875 304.414062 104.042969 304.574219 C 104.160156 304.734375 104.289062 304.886719 104.425781 305.03125 C 104.5625 305.175781 104.710938 305.308594 104.863281 305.433594 C 105.019531 305.558594 105.179688 305.675781 105.351562 305.777344 C 105.519531 305.882812 105.695312 305.976562 105.875 306.058594 C 106.058594 306.140625 106.242188 306.210938 106.433594 306.269531 C 106.625 306.328125 106.816406 306.375 107.011719 306.410156 C 107.207031 306.441406 107.40625 306.464844 107.605469 306.472656 C 107.804688 306.480469 108.003906 306.476562 108.199219 306.460938 C 108.398438 306.445312 108.59375 306.417969 108.789062 306.375 C 108.984375 306.332031 109.175781 306.28125 109.363281 306.214844 C 109.550781 306.148438 109.734375 306.070312 109.914062 305.980469 L 119.4375 301.21875 C 121.03125 300.421875 122.363281 299.183594 123.28125 297.65625 L 131.070312 284.671875 C 147.683594 294.355469 166.921875 300 187.5 300 C 208.078125 300 227.316406 294.355469 243.929688 284.671875 L 251.71875 297.664062 C 252.636719 299.195312 253.96875 300.429688 255.5625 301.226562 L 265.085938 305.992188 C 265.265625 306.078125 265.449219 306.15625 265.636719 306.222656 C 265.824219 306.289062 266.015625 306.34375 266.210938 306.382812 C 266.40625 306.425781 266.601562 306.453125 266.800781 306.472656 C 267 306.488281 267.199219 306.492188 267.398438 306.484375 C 267.597656 306.472656 267.792969 306.453125 267.992188 306.417969 C 268.1875 306.382812 268.378906 306.335938 268.570312 306.277344 C 268.761719 306.21875 268.945312 306.148438 269.128906 306.066406 C 269.308594 305.984375 269.484375 305.890625 269.652344 305.785156 C 269.824219 305.679688 269.984375 305.566406 270.140625 305.441406 C 270.296875 305.316406 270.441406 305.179688 270.578125 305.035156 C 270.714844 304.890625 270.84375 304.738281 270.960938 304.578125 C 271.082031 304.417969 271.1875 304.25 271.285156 304.078125 C 271.382812 303.902344 271.464844 303.722656 271.539062 303.539062 C 271.613281 303.355469 271.675781 303.164062 271.726562 302.972656 C 271.777344 302.777344 271.8125 302.582031 271.839844 302.386719 C 271.863281 302.1875 271.875 301.988281 271.875 301.789062 L 271.875 293.222656 C 271.878906 291.492188 271.429688 289.882812 270.535156 288.402344 Z M 187.5 281.25 C 179.28125 281.246094 171.203125 280.175781 163.265625 278.03125 C 155.332031 275.886719 147.8125 272.75 140.710938 268.613281 L 150.402344 252.449219 C 156.039062 255.722656 162 258.210938 168.289062 259.914062 C 174.582031 261.617188 180.984375 262.480469 187.5 262.5 C 194.023438 262.5 200.433594 261.65625 206.734375 259.972656 C 213.035156 258.289062 219.011719 255.816406 224.664062 252.5625 L 234.300781 268.621094 C 227.195312 272.753906 219.671875 275.890625 211.734375 278.03125 C 203.800781 280.171875 195.71875 281.246094 187.5 281.25 Z M 175.976562 209.832031 L 182.304688 214.050781 C 183.074219 214.566406 183.902344 214.957031 184.789062 215.226562 C 185.671875 215.496094 186.578125 215.632812 187.503906 215.632812 C 188.429688 215.632812 189.335938 215.496094 190.222656 215.226562 C 191.105469 214.957031 191.933594 214.566406 192.703125 214.050781 L 199.03125 209.832031 L 215.035156 236.503906 C 206.878906 241.097656 197.503906 243.75 187.5 243.75 C 182.679688 243.734375 177.941406 243.109375 173.285156 241.867188 C 168.628906 240.625 164.207031 238.808594 160.023438 236.417969 Z M 168.75 168.75 C 168.734375 168.128906 168.753906 167.503906 168.800781 166.882812 C 168.847656 166.261719 168.925781 165.644531 169.035156 165.035156 C 169.144531 164.421875 169.285156 163.8125 169.457031 163.214844 C 169.625 162.617188 169.824219 162.027344 170.054688 161.445312 C 170.28125 160.867188 170.539062 160.300781 170.824219 159.746094 C 171.109375 159.191406 171.421875 158.65625 171.757812 158.132812 C 172.097656 157.609375 172.460938 157.105469 172.851562 156.617188 C 173.238281 156.132812 173.652344 155.664062 174.085938 155.21875 C 174.523438 154.773438 174.976562 154.351562 175.457031 153.953125 C 175.933594 153.550781 176.429688 153.175781 176.945312 152.828125 C 177.457031 152.476562 177.988281 152.152344 178.535156 151.855469 C 179.085938 151.558594 179.644531 151.289062 180.21875 151.046875 C 180.792969 150.804688 181.378906 150.589844 181.972656 150.40625 C 182.566406 150.222656 183.171875 150.070312 183.78125 149.949219 C 184.390625 149.824219 185.007812 149.730469 185.625 149.667969 C 186.246094 149.609375 186.867188 149.578125 187.492188 149.578125 C 188.113281 149.574219 188.734375 149.605469 189.355469 149.667969 C 189.972656 149.730469 190.589844 149.824219 191.199219 149.945312 C 191.808594 150.070312 192.414062 150.222656 193.007812 150.40625 C 193.605469 150.589844 194.1875 150.800781 194.761719 151.042969 C 195.335938 151.285156 195.898438 151.554688 196.445312 151.851562 C 196.992188 152.148438 197.523438 152.472656 198.039062 152.820312 C 198.554688 153.171875 199.050781 153.546875 199.527344 153.945312 C 200.003906 154.347656 200.460938 154.769531 200.898438 155.214844 C 201.332031 155.660156 201.746094 156.125 202.132812 156.609375 C 202.523438 157.097656 202.886719 157.601562 203.226562 158.125 C 203.566406 158.648438 203.878906 159.183594 204.164062 159.738281 C 204.449219 160.292969 204.707031 160.859375 204.933594 161.4375 C 205.164062 162.015625 205.363281 162.605469 205.53125 163.207031 C 205.703125 163.804688 205.84375 164.410156 205.953125 165.023438 C 206.0625 165.636719 206.140625 166.253906 206.1875 166.875 C 206.238281 167.496094 206.253906 168.117188 206.242188 168.742188 C 206.226562 169.347656 206.183594 169.949219 206.113281 170.550781 C 206.042969 171.152344 205.941406 171.746094 205.8125 172.339844 C 205.679688 172.929688 205.523438 173.511719 205.335938 174.089844 C 205.152344 174.664062 204.9375 175.230469 204.695312 175.785156 C 204.457031 176.34375 204.1875 176.882812 203.894531 177.414062 C 203.601562 177.941406 203.285156 178.457031 202.941406 178.957031 C 202.597656 179.453125 202.230469 179.9375 201.839844 180.398438 C 201.453125 180.863281 201.039062 181.304688 200.609375 181.730469 C 200.175781 182.152344 199.722656 182.554688 199.25 182.933594 C 198.78125 183.3125 198.292969 183.667969 197.785156 184 C 197.277344 184.332031 196.757812 184.640625 196.222656 184.921875 C 195.6875 185.203125 195.136719 185.457031 194.578125 185.6875 C 194.015625 185.914062 193.445312 186.117188 192.867188 186.289062 C 192.289062 186.464844 191.699219 186.609375 191.105469 186.726562 C 190.511719 186.839844 189.914062 186.929688 189.3125 186.988281 C 188.710938 187.046875 188.105469 187.074219 187.5 187.078125 C 186.894531 187.078125 186.289062 187.046875 185.6875 186.988281 C 185.085938 186.929688 184.488281 186.84375 183.894531 186.726562 C 183.300781 186.609375 182.710938 186.464844 182.132812 186.292969 C 181.550781 186.121094 180.980469 185.917969 180.421875 185.691406 C 179.859375 185.460938 179.3125 185.207031 178.777344 184.925781 C 178.242188 184.644531 177.71875 184.335938 177.214844 184.003906 C 176.707031 183.671875 176.21875 183.316406 175.746094 182.9375 C 175.273438 182.558594 174.820312 182.160156 174.390625 181.734375 C 173.957031 181.3125 173.546875 180.867188 173.15625 180.40625 C 172.765625 179.941406 172.398438 179.460938 172.054688 178.964844 C 171.710938 178.464844 171.394531 177.953125 171.097656 177.421875 C 170.804688 176.894531 170.539062 176.351562 170.296875 175.796875 C 170.054688 175.238281 169.84375 174.675781 169.65625 174.097656 C 169.46875 173.523438 169.3125 172.9375 169.179688 172.347656 C 169.050781 171.757812 168.949219 171.160156 168.878906 170.558594 C 168.804688 169.957031 168.765625 169.355469 168.75 168.75 Z M 251.164062 256.117188 L 241.285156 239.644531 C 244.652344 236.191406 247.660156 232.445312 250.300781 228.40625 C 252.945312 224.371094 255.175781 220.117188 256.996094 215.648438 C 258.8125 211.179688 260.183594 206.574219 261.109375 201.839844 C 262.039062 197.105469 262.5 192.324219 262.5 187.5 C 262.5 186.882812 262.441406 186.273438 262.320312 185.671875 C 262.199219 185.066406 262.023438 184.480469 261.785156 183.914062 C 261.550781 183.34375 261.261719 182.804688 260.921875 182.292969 C 260.578125 181.78125 260.1875 181.304688 259.753906 180.871094 C 259.320312 180.4375 258.84375 180.046875 258.332031 179.703125 C 257.820312 179.363281 257.28125 179.074219 256.710938 178.839844 C 256.144531 178.601562 255.558594 178.425781 254.953125 178.304688 C 254.351562 178.183594 253.742188 178.125 253.125 178.125 C 252.507812 178.125 251.898438 178.183594 251.296875 178.304688 C 250.691406 178.425781 250.105469 178.601562 249.539062 178.839844 C 248.96875 179.074219 248.429688 179.363281 247.917969 179.703125 C 247.40625 180.046875 246.929688 180.4375 246.496094 180.871094 C 246.0625 181.304688 245.671875 181.78125 245.328125 182.292969 C 244.988281 182.804688 244.699219 183.34375 244.464844 183.914062 C 244.226562 184.480469 244.050781 185.066406 243.929688 185.671875 C 243.808594 186.273438 243.75 186.882812 243.75 187.5 C 243.75 190.695312 243.480469 193.867188 242.941406 197.015625 C 242.398438 200.164062 241.59375 203.242188 240.523438 206.253906 C 239.457031 209.265625 238.140625 212.160156 236.574219 214.945312 C 235.011719 217.734375 233.222656 220.363281 231.207031 222.84375 L 216.441406 198.234375 L 220.828125 195.308594 C 223.433594 193.554688 225 190.632812 225 187.5 L 225 150 C 225 149.382812 224.941406 148.773438 224.820312 148.171875 C 224.699219 147.566406 224.523438 146.980469 224.285156 146.414062 C 224.050781 145.84375 223.761719 145.304688 223.421875 144.792969 C 223.078125 144.28125 222.6875 143.804688 222.253906 143.371094 C 221.820312 142.9375 221.34375 142.546875 220.832031 142.203125 C 220.320312 141.863281 219.78125 141.574219 219.210938 141.339844 C 218.644531 141.101562 218.058594 140.925781 217.453125 140.804688 C 216.851562 140.683594 216.242188 140.625 215.625 140.625 L 206.25 140.625 L 206.25 121.875 C 206.25 121.257812 206.191406 120.648438 206.070312 120.046875 C 205.949219 119.441406 205.773438 118.855469 205.535156 118.289062 C 205.300781 117.71875 205.011719 117.179688 204.671875 116.667969 C 204.328125 116.15625 203.9375 115.679688 203.503906 115.246094 C 203.070312 114.8125 202.59375 114.421875 202.082031 114.078125 C 201.570312 113.738281 201.03125 113.449219 200.460938 113.214844 C 199.894531 112.976562 199.308594 112.800781 198.703125 112.679688 C 198.101562 112.558594 197.492188 112.5 196.875 112.5 L 178.125 112.5 C 177.507812 112.5 176.898438 112.558594 176.296875 112.679688 C 175.691406 112.800781 175.105469 112.976562 174.539062 113.214844 C 173.96875 113.449219 173.429688 113.738281 172.917969 114.078125 C 172.40625 114.421875 171.929688 114.8125 171.496094 115.246094 C 171.0625 115.679688 170.671875 116.15625 170.328125 116.667969 C 169.988281 117.179688 169.699219 117.71875 169.464844 118.289062 C 169.226562 118.855469 169.050781 119.441406 168.929688 120.046875 C 168.808594 120.648438 168.75 121.257812 168.75 121.875 L 168.75 140.625 L 159.375 140.625 C 158.757812 140.625 158.148438 140.683594 157.546875 140.804688 C 156.941406 140.925781 156.355469 141.101562 155.789062 141.339844 C 155.21875 141.574219 154.679688 141.863281 154.167969 142.203125 C 153.65625 142.546875 153.179688 142.9375 152.746094 143.371094 C 152.3125 143.804688 151.921875 144.28125 151.578125 144.792969 C 151.238281 145.304688 150.949219 145.84375 150.714844 146.414062 C 150.476562 146.980469 150.300781 147.566406 150.179688 148.171875 C 150.058594 148.773438 150 149.382812 150 150 L 150 187.5 C 150 190.632812 151.566406 193.554688 154.171875 195.300781 L 158.558594 198.226562 L 123.824219 256.117188 C 105.382812 238.988281 93.75 214.601562 93.75 187.5 C 93.75 135.804688 135.804688 93.75 187.5 93.75 C 239.195312 93.75 281.25 135.804688 281.25 187.5 C 281.25 214.601562 269.617188 238.988281 251.164062 256.117188 Z M 251.164062 256.117188 " fill-opacity="1" fill-rule="nonzero"/></svg>