<svg xmlns="http://www.w3.org/2000/svg" xmlns:xlink="http://www.w3.org/1999/xlink" width="500" zoomAndPan="magnify" viewBox="0 0 375 374.999991" height="500" preserveAspectRatio="xMidYMid meet" version="1.0"><defs><clipPath id="02494c02d8"><path d="M 69 49 L 306 49 L 306 327.75 L 69 327.75 Z M 69 49 " clip-rule="nonzero"/></clipPath></defs><g clip-path="url(#02494c02d8)"><path fill="#02111a" d="M 152.175781 108.609375 C 153.960938 108.609375 155.496094 107.96875 156.78125 106.683594 C 158.0625 105.402344 158.707031 103.867188 158.707031 102.082031 C 158.707031 100.292969 158.0625 98.761719 156.78125 97.476562 C 155.496094 96.191406 153.960938 95.550781 152.175781 95.550781 C 150.390625 95.550781 148.882812 96.191406 147.65625 97.476562 C 146.429688 98.761719 145.816406 100.292969 145.816406 102.082031 C 145.816406 103.867188 146.429688 105.402344 147.65625 106.683594 C 148.882812 107.96875 150.390625 108.609375 152.175781 108.609375 Z M 222.824219 108.609375 C 224.609375 108.609375 226.117188 107.96875 227.34375 106.683594 C 228.570312 105.402344 229.183594 103.867188 229.183594 102.082031 C 229.183594 100.292969 228.570312 98.761719 227.34375 97.476562 C 226.117188 96.191406 224.609375 95.550781 222.824219 95.550781 C 221.039062 95.550781 219.503906 96.191406 218.21875 97.476562 C 216.9375 98.761719 216.292969 100.292969 216.292969 102.082031 C 216.292969 103.867188 216.9375 105.402344 218.21875 106.683594 C 219.503906 107.96875 221.039062 108.609375 222.824219 108.609375 Z M 86.886719 139.414062 C 91.574219 139.414062 95.589844 141.085938 98.941406 144.433594 C 102.289062 147.785156 103.960938 151.800781 103.960938 156.488281 L 103.960938 228.476562 C 103.960938 233.273438 102.316406 237.347656 99.023438 240.695312 C 95.730469 244.042969 91.683594 245.71875 86.886719 245.71875 C 82.085938 245.71875 78.011719 244.042969 74.664062 240.695312 C 71.316406 237.347656 69.644531 233.273438 69.644531 228.476562 L 69.644531 156.488281 C 69.644531 151.800781 71.316406 147.785156 74.664062 144.433594 C 78.011719 141.085938 82.085938 139.414062 86.886719 139.414062 Z M 264.339844 142.59375 L 264.339844 254.089844 C 264.339844 259.222656 262.554688 263.574219 258.984375 267.148438 C 255.414062 270.71875 251.117188 272.503906 246.09375 272.503906 L 233.539062 272.503906 L 233.539062 310.507812 C 233.539062 315.304688 231.863281 319.378906 228.515625 322.726562 C 225.167969 326.074219 221.09375 327.75 216.292969 327.75 C 211.496094 327.75 207.421875 326.074219 204.074219 322.726562 C 200.726562 319.378906 199.050781 315.304688 199.050781 310.507812 L 199.050781 272.503906 L 175.949219 272.503906 L 175.949219 310.507812 C 175.949219 315.304688 174.273438 319.378906 170.925781 322.726562 C 167.578125 326.074219 163.503906 327.75 158.707031 327.75 C 154.019531 327.75 150 326.074219 146.652344 322.726562 C 143.304688 319.378906 141.628906 315.304688 141.628906 310.507812 L 141.460938 272.503906 L 129.074219 272.503906 C 123.941406 272.503906 119.585938 270.71875 116.015625 267.148438 C 112.445312 263.574219 110.660156 259.222656 110.660156 254.089844 L 110.660156 142.59375 Z M 225.503906 74.792969 C 237.445312 80.929688 246.988281 89.496094 254.128906 100.488281 C 261.273438 111.484375 264.84375 123.507812 264.84375 136.566406 L 109.988281 136.566406 C 109.988281 123.507812 113.558594 111.484375 120.703125 100.488281 C 127.847656 89.496094 137.445312 80.929688 149.496094 74.792969 L 137.613281 52.863281 C 136.832031 51.410156 137.109375 50.292969 138.449219 49.511719 C 139.898438 48.84375 141.015625 49.179688 141.796875 50.519531 L 153.851562 72.617188 C 164.453125 67.929688 175.667969 65.585938 187.5 65.585938 C 199.332031 65.585938 210.546875 67.929688 221.148438 72.617188 L 233.203125 50.519531 C 233.984375 49.179688 235.101562 48.84375 236.550781 49.511719 C 237.890625 50.292969 238.167969 51.410156 237.386719 52.863281 Z M 305.355469 156.488281 L 305.355469 228.476562 C 305.355469 233.273438 303.683594 237.347656 300.335938 240.695312 C 296.988281 244.042969 292.914062 245.71875 288.113281 245.71875 C 283.425781 245.71875 279.410156 244.042969 276.058594 240.695312 C 272.710938 237.347656 271.039062 233.273438 271.039062 228.476562 L 271.039062 156.488281 C 271.039062 151.691406 272.710938 147.644531 276.058594 144.351562 C 279.410156 141.058594 283.425781 139.414062 288.113281 139.414062 C 292.914062 139.414062 296.988281 141.058594 300.335938 144.351562 C 303.683594 147.644531 305.355469 151.691406 305.355469 156.488281 Z M 305.355469 156.488281 " fill-opacity="1" fill-rule="nonzero"/></g></svg>