<svg xmlns="http://www.w3.org/2000/svg" xmlns:xlink="http://www.w3.org/1999/xlink" width="500" zoomAndPan="magnify" viewBox="0 0 375 374.999991" height="500" preserveAspectRatio="xMidYMid meet" version="1.0"><defs><clipPath id="be6586c4b4"><path d="M 58 61 L 317 61 L 317 318.628906 L 58 318.628906 Z M 58 61 " clip-rule="nonzero"/></clipPath></defs><g clip-path="url(#be6586c4b4)"><path fill="#02111a" d="M 316.238281 190.125 C 316.238281 192.230469 316.183594 194.335938 316.082031 196.441406 C 315.980469 198.546875 315.824219 200.648438 315.617188 202.742188 C 315.410156 204.839844 315.152344 206.929688 314.84375 209.015625 C 314.535156 211.097656 314.175781 213.175781 313.761719 215.242188 C 313.351562 217.308594 312.890625 219.363281 312.378906 221.40625 C 311.867188 223.449219 311.304688 225.480469 310.695312 227.496094 C 310.082031 229.511719 309.421875 231.511719 308.710938 233.496094 C 308 235.480469 307.242188 237.445312 306.4375 239.390625 C 305.632812 241.335938 304.777344 243.261719 303.875 245.167969 C 302.976562 247.074219 302.027344 248.953125 301.035156 250.8125 C 300.042969 252.671875 299.003906 254.503906 297.921875 256.308594 C 296.835938 258.117188 295.710938 259.898438 294.539062 261.648438 C 293.371094 263.402344 292.15625 265.121094 290.902344 266.816406 C 289.648438 268.507812 288.351562 270.167969 287.015625 271.796875 C 285.679688 273.425781 284.300781 275.019531 282.886719 276.582031 C 281.472656 278.140625 280.019531 279.667969 278.53125 281.15625 C 277.039062 282.648438 275.515625 284.101562 273.953125 285.515625 C 272.390625 286.929688 270.796875 288.304688 269.167969 289.640625 C 267.539062 290.976562 265.878906 292.273438 264.1875 293.53125 C 262.496094 294.785156 260.773438 295.996094 259.019531 297.167969 C 257.269531 298.339844 255.488281 299.464844 253.683594 300.546875 C 251.875 301.632812 250.042969 302.667969 248.183594 303.664062 C 246.328125 304.65625 244.445312 305.601562 242.539062 306.503906 C 240.636719 307.40625 238.710938 308.257812 236.765625 309.066406 C 234.816406 309.871094 232.851562 310.628906 230.867188 311.339844 C 228.882812 312.046875 226.882812 312.710938 224.867188 313.320312 C 222.851562 313.933594 220.820312 314.496094 218.777344 315.007812 C 216.734375 315.519531 214.679688 315.980469 212.613281 316.390625 C 210.546875 316.800781 208.472656 317.160156 206.386719 317.472656 C 204.304688 317.78125 202.210938 318.039062 200.117188 318.246094 C 198.019531 318.449219 195.917969 318.605469 193.8125 318.710938 C 191.710938 318.8125 189.605469 318.863281 187.496094 318.863281 C 185.390625 318.863281 183.285156 318.8125 181.179688 318.710938 C 179.074219 318.605469 176.976562 318.449219 174.878906 318.246094 C 172.78125 318.039062 170.691406 317.78125 168.605469 317.472656 C 166.523438 317.160156 164.449219 316.800781 162.382812 316.390625 C 160.316406 315.980469 158.261719 315.519531 156.214844 315.007812 C 154.171875 314.496094 152.140625 313.933594 150.125 313.320312 C 148.109375 312.710938 146.109375 312.046875 144.125 311.339844 C 142.140625 310.628906 140.175781 309.871094 138.230469 309.066406 C 136.285156 308.257812 134.359375 307.40625 132.453125 306.503906 C 130.550781 305.601562 128.667969 304.65625 126.808594 303.664062 C 124.953125 302.667969 123.117188 301.632812 121.3125 300.546875 C 119.503906 299.464844 117.726562 298.339844 115.972656 297.167969 C 114.222656 295.996094 112.5 294.785156 110.808594 293.53125 C 109.113281 292.273438 107.453125 290.976562 105.824219 289.640625 C 104.195312 288.304688 102.601562 286.929688 101.039062 285.515625 C 99.480469 284.101562 97.953125 282.648438 96.464844 281.15625 C 94.976562 279.667969 93.523438 278.140625 92.105469 276.582031 C 90.691406 275.019531 89.316406 273.425781 87.980469 271.796875 C 86.644531 270.167969 85.347656 268.507812 84.09375 266.816406 C 82.835938 265.121094 81.625 263.402344 80.453125 261.648438 C 79.285156 259.898438 78.15625 258.117188 77.074219 256.308594 C 75.988281 254.503906 74.953125 252.671875 73.957031 250.8125 C 72.964844 248.953125 72.019531 247.074219 71.117188 245.167969 C 70.21875 243.261719 69.363281 241.335938 68.558594 239.390625 C 67.75 237.445312 66.992188 235.480469 66.28125 233.496094 C 65.574219 231.511719 64.914062 229.511719 64.300781 227.496094 C 63.6875 225.480469 63.128906 223.449219 62.617188 221.40625 C 62.105469 219.363281 61.640625 217.308594 61.230469 215.242188 C 60.820312 213.175781 60.460938 211.097656 60.152344 209.015625 C 59.839844 206.929688 59.582031 204.839844 59.378906 202.742188 C 59.171875 200.648438 59.015625 198.546875 58.914062 196.441406 C 58.808594 194.335938 58.757812 192.230469 58.757812 190.125 C 58.757812 188.019531 58.808594 185.910156 58.914062 183.808594 C 59.015625 181.703125 59.171875 179.601562 59.378906 177.507812 C 59.582031 175.410156 59.839844 173.320312 60.152344 171.234375 C 60.460938 169.152344 60.820312 167.074219 61.230469 165.007812 C 61.640625 162.941406 62.105469 160.886719 62.617188 158.84375 C 63.128906 156.800781 63.6875 154.769531 64.300781 152.753906 C 64.914062 150.738281 65.574219 148.738281 66.28125 146.753906 C 66.992188 144.769531 67.75 142.804688 68.558594 140.859375 C 69.363281 138.910156 70.21875 136.984375 71.117188 135.082031 C 72.019531 133.175781 72.964844 131.296875 73.957031 129.4375 C 74.953125 127.578125 75.988281 125.746094 77.074219 123.9375 C 78.15625 122.132812 79.285156 120.351562 80.453125 118.601562 C 81.625 116.847656 82.835938 115.125 84.09375 113.433594 C 85.347656 111.742188 86.644531 110.082031 87.980469 108.453125 C 89.316406 106.824219 90.691406 105.230469 92.105469 103.667969 C 93.523438 102.105469 94.976562 100.582031 96.464844 99.09375 C 97.953125 97.601562 99.480469 96.148438 101.039062 94.734375 C 102.601562 93.320312 104.195312 91.945312 105.824219 90.605469 C 107.453125 89.269531 109.113281 87.976562 110.808594 86.71875 C 112.5 85.464844 114.222656 84.25 115.972656 83.082031 C 117.726562 81.910156 119.503906 80.785156 121.3125 79.699219 C 123.117188 78.617188 124.953125 77.578125 126.808594 76.585938 C 128.667969 75.59375 130.550781 74.644531 132.453125 73.746094 C 134.359375 72.84375 136.285156 71.992188 138.230469 71.183594 C 140.175781 70.378906 142.140625 69.621094 144.125 68.910156 C 146.109375 68.199219 148.109375 67.539062 150.125 66.929688 C 152.140625 66.316406 154.171875 65.753906 156.214844 65.242188 C 158.261719 64.730469 160.316406 64.269531 162.382812 63.859375 C 164.449219 63.449219 166.523438 63.085938 168.605469 62.777344 C 170.691406 62.46875 172.78125 62.210938 174.878906 62.003906 C 176.976562 61.796875 179.074219 61.644531 181.179688 61.539062 C 183.285156 61.4375 185.390625 61.386719 187.496094 61.386719 C 189.605469 61.386719 191.710938 61.4375 193.8125 61.539062 C 195.917969 61.644531 198.019531 61.796875 200.117188 62.003906 C 202.210938 62.210938 204.304688 62.46875 206.386719 62.777344 C 208.472656 63.085938 210.546875 63.449219 212.613281 63.859375 C 214.679688 64.269531 216.734375 64.730469 218.777344 65.242188 C 220.820312 65.753906 222.851562 66.316406 224.867188 66.929688 C 226.882812 67.539062 228.882812 68.199219 230.867188 68.910156 C 232.851562 69.621094 234.816406 70.378906 236.765625 71.183594 C 238.710938 71.992188 240.636719 72.84375 242.539062 73.746094 C 244.445312 74.644531 246.328125 75.59375 248.183594 76.585938 C 250.042969 77.578125 251.875 78.617188 253.683594 79.699219 C 255.488281 80.785156 257.269531 81.910156 259.019531 83.082031 C 260.773438 84.25 262.496094 85.464844 264.1875 86.71875 C 265.878906 87.976562 267.539062 89.269531 269.167969 90.605469 C 270.796875 91.945312 272.390625 93.320312 273.953125 94.734375 C 275.515625 96.148438 277.039062 97.601562 278.53125 99.09375 C 280.019531 100.582031 281.472656 102.105469 282.886719 103.667969 C 284.300781 105.230469 285.679688 106.824219 287.015625 108.453125 C 288.351562 110.082031 289.648438 111.742188 290.902344 113.433594 C 292.15625 115.125 293.371094 116.847656 294.539062 118.601562 C 295.710938 120.351562 296.835938 122.132812 297.921875 123.9375 C 299.003906 125.746094 300.042969 127.578125 301.035156 129.4375 C 302.027344 131.296875 302.976562 133.175781 303.875 135.082031 C 304.777344 136.984375 305.632812 138.910156 306.4375 140.859375 C 307.242188 142.804688 308 144.769531 308.710938 146.753906 C 309.421875 148.738281 310.082031 150.738281 310.695312 152.753906 C 311.304688 154.769531 311.867188 156.800781 312.378906 158.84375 C 312.890625 160.886719 313.351562 162.941406 313.761719 165.007812 C 314.175781 167.074219 314.535156 169.152344 314.84375 171.234375 C 315.152344 173.320312 315.410156 175.410156 315.617188 177.507812 C 315.824219 179.601562 315.980469 181.703125 316.082031 183.808594 C 316.183594 185.910156 316.238281 188.019531 316.238281 190.125 Z M 316.238281 190.125 " fill-opacity="1" fill-rule="nonzero"/></g><path fill="#bae8e8" d="M 220.863281 211.667969 C 215.609375 217.449219 208.253906 220.339844 204.835938 220.339844 C 200.898438 220.339844 198.792969 217.972656 198.269531 214.296875 C 198.007812 212.984375 198.269531 211.40625 198.53125 210.09375 C 199.847656 201.949219 202.734375 196.691406 202.734375 195.378906 C 202.734375 194.855469 202.472656 194.589844 202.210938 194.589844 C 199.582031 194.589844 190.648438 203.785156 189.335938 209.828125 L 188.285156 214.820312 C 187.496094 218.238281 184.34375 220.339844 181.980469 220.339844 C 180.929688 220.339844 180.140625 219.8125 179.878906 218.5 C 179.878906 217.972656 179.878906 217.449219 179.878906 216.921875 L 180.402344 214.296875 C 175.675781 217.972656 170.417969 220.339844 168.054688 220.339844 C 164.640625 220.339844 162.800781 218.5 162.273438 215.871094 C 160.171875 218.761719 157.28125 220.339844 154.128906 220.339844 C 150.1875 220.339844 146.511719 217.710938 144.671875 213.769531 C 142.042969 216.660156 138.890625 219.550781 135.214844 221.914062 C 129.695312 225.332031 123.652344 228.222656 116.558594 228.222656 C 109.992188 228.222656 104.210938 224.804688 101.320312 221.914062 C 96.589844 217.710938 94.226562 211.144531 93.4375 205.363281 C 91.074219 186.972656 102.371094 162.539062 119.972656 152.027344 C 123.914062 149.664062 128.382812 148.351562 132.585938 148.351562 C 140.992188 148.351562 147.300781 154.394531 148.085938 161.488281 C 148.875 168.054688 146.246094 173.574219 139.152344 176.988281 C 135.476562 178.828125 133.636719 178.828125 133.109375 177.777344 C 132.847656 177.25 132.847656 176.199219 133.636719 175.675781 C 140.46875 170.15625 140.46875 165.425781 139.679688 158.859375 C 139.152344 154.65625 136.527344 152.027344 133.375 152.027344 C 119.710938 152.027344 100.792969 181.71875 103.421875 203.261719 C 104.472656 211.667969 109.726562 221.390625 120.238281 221.390625 C 123.652344 221.390625 127.59375 220.339844 130.746094 218.761719 C 136.527344 215.871094 139.941406 213.507812 143.09375 209.566406 C 142.308594 199.582031 150.976562 186.972656 163.589844 186.972656 C 169.105469 186.972656 173.574219 189.074219 174.097656 193.539062 C 174.886719 199.058594 170.15625 200.109375 168.316406 200.109375 C 166.742188 200.109375 164.375 199.582031 164.113281 198.269531 C 163.851562 196.691406 167.53125 197.480469 167.003906 194.066406 C 166.742188 191.964844 164.375 191.175781 162.273438 191.175781 C 154.394531 191.175781 149.925781 202.210938 150.714844 209.042969 C 150.976562 212.195312 152.816406 215.347656 155.445312 215.347656 C 157.808594 215.347656 161.222656 211.929688 162.273438 207.203125 C 163.0625 203.785156 166.214844 201.683594 168.582031 201.683594 C 169.894531 201.683594 170.683594 202.210938 170.683594 203.523438 C 170.683594 204.050781 170.683594 204.574219 170.683594 205.101562 C 170.417969 206.414062 169.367188 211.40625 169.367188 212.195312 C 169.367188 212.984375 169.894531 214.296875 171.46875 214.296875 C 172.785156 214.296875 176.988281 211.929688 181.191406 208.253906 C 182.503906 201.683594 184.082031 193.539062 184.082031 193.015625 C 184.605469 190.386719 185.65625 187.496094 190.914062 187.496094 C 191.964844 187.496094 192.75 188.023438 193.015625 189.335938 C 193.015625 189.863281 193.015625 190.386719 193.015625 190.914062 L 191.699219 198.007812 C 196.429688 191.699219 203.785156 186.972656 208.253906 186.972656 C 210.09375 186.972656 211.667969 188.023438 211.929688 189.863281 C 212.195312 190.914062 211.667969 192.753906 211.144531 194.855469 C 209.566406 199.058594 207.726562 205.625 206.675781 211.144531 C 206.414062 212.457031 206.941406 214.035156 209.042969 214.035156 C 210.878906 214.035156 216.398438 211.929688 220.863281 205.890625 C 220.863281 205.101562 220.863281 204.3125 220.863281 203.261719 C 220.863281 198.53125 221.128906 194.855469 222.179688 191.964844 C 222.964844 189.074219 226.644531 186.445312 229.007812 186.445312 C 230.324219 186.445312 231.109375 187.234375 231.109375 188.546875 C 231.109375 189.074219 231.109375 189.597656 230.847656 190.125 C 229.273438 195.117188 228.222656 199.582031 228.222656 204.050781 C 228.222656 206.675781 228.746094 210.617188 229.273438 212.71875 C 229.273438 213.246094 229.535156 213.507812 230.058594 213.507812 C 230.847656 213.507812 236.101562 208.515625 239.78125 202.210938 C 236.367188 200.109375 234.527344 196.167969 234.527344 191.4375 C 234.527344 183.554688 239.257812 179.351562 243.984375 179.351562 C 247.664062 179.351562 250.816406 181.980469 250.816406 187.234375 C 250.816406 190.648438 249.503906 194.328125 247.664062 198.007812 C 247.664062 198.007812 248.453125 198.007812 248.714844 198.007812 C 251.605469 198.007812 253.707031 196.691406 255.019531 195.117188 C 255.546875 194.589844 256.070312 194.066406 256.597656 193.804688 C 260.273438 189.335938 265.792969 186.183594 272.097656 186.183594 C 277.613281 186.183594 282.082031 188.285156 282.605469 192.753906 C 283.394531 198.269531 278.402344 199.582031 276.828125 199.582031 C 275.25 199.582031 272.625 199.058594 272.625 197.742188 C 272.359375 196.429688 276.039062 196.957031 275.777344 193.539062 C 275.511719 191.4375 273.148438 190.386719 271.046875 190.386719 C 263.691406 190.386719 258.699219 200.109375 259.488281 208.253906 C 259.75 211.40625 261.324219 214.558594 264.214844 214.558594 C 266.582031 214.558594 269.996094 211.144531 271.308594 206.414062 C 272.097656 203.261719 275.25 200.898438 277.613281 200.898438 C 278.667969 200.898438 279.71875 201.421875 279.71875 202.734375 C 279.71875 203.523438 279.453125 204.835938 278.402344 210.09375 C 277.878906 212.195312 277.878906 214.296875 277.878906 215.609375 C 278.402344 218.761719 279.71875 220.863281 281.03125 222.179688 C 281.554688 222.703125 281.820312 223.230469 281.820312 223.492188 C 281.820312 224.28125 281.292969 225.066406 280.242188 225.066406 C 279.980469 225.066406 279.453125 225.066406 279.191406 224.804688 C 273.410156 222.441406 271.046875 218.5 270.519531 215.085938 C 268.417969 217.972656 265.53125 219.289062 262.375 219.289062 C 257.382812 219.289062 252.394531 214.820312 251.605469 209.042969 C 251.339844 206.675781 251.605469 204.050781 252.394531 201.683594 C 250.289062 203 248.1875 203.785156 246.085938 203.785156 C 245.300781 203.785156 244.773438 203.785156 244.246094 203.785156 C 239.257812 210.878906 234 215.871094 230.058594 218.238281 C 228.484375 219.027344 226.90625 219.550781 225.855469 219.550781 C 225.066406 219.550781 224.015625 219.289062 223.492188 218.5 C 221.914062 217.449219 221.128906 214.820312 220.863281 211.667969 Z M 238.730469 188.023438 C 238.730469 191.175781 240.308594 194.328125 242.144531 196.429688 C 242.933594 194.328125 243.460938 192.226562 243.460938 190.125 C 243.460938 186.183594 241.882812 184.34375 240.832031 184.34375 C 239.257812 184.34375 238.730469 186.445312 238.730469 188.023438 Z M 238.730469 188.023438 " fill-opacity="1" fill-rule="nonzero"/></svg>