<svg xmlns="http://www.w3.org/2000/svg" xmlns:xlink="http://www.w3.org/1999/xlink" width="500" zoomAndPan="magnify" viewBox="0 0 375 374.999991" height="500" preserveAspectRatio="xMidYMid meet" version="1.0"><defs><clipPath id="a99e0ad0e9"><path d="M 56.492188 40.117188 L 318.242188 40.117188 L 318.242188 334.867188 L 56.492188 334.867188 Z M 56.492188 40.117188 " clip-rule="nonzero"/></clipPath><clipPath id="d354762139"><path d="M 59 186 L 316 186 L 316 334.867188 L 59 334.867188 Z M 59 186 " clip-rule="nonzero"/></clipPath><clipPath id="42d7193d84"><path d="M 187 113 L 318.242188 113 L 318.242188 261 L 187 261 Z M 187 113 " clip-rule="nonzero"/></clipPath></defs><g clip-path="url(#a99e0ad0e9)"><path fill="#02111a" d="M 318.058594 126.824219 C 318.058594 121.882812 317 117.515625 314.863281 113.765625 C 312.761719 110.078125 309.617188 106.988281 305.398438 104.546875 C 270.574219 84.464844 235.71875 64.449219 200.90625 44.347656 C 191.519531 38.929688 182.421875 39.128906 173.105469 44.625 C 159.246094 52.796875 89.847656 92.558594 69.167969 104.535156 C 60.652344 109.464844 56.507812 117.007812 56.507812 126.816406 C 56.492188 167.199219 56.507812 207.578125 56.492188 247.960938 C 56.496094 252.792969 57.507812 257.078125 59.550781 260.769531 C 61.652344 264.566406 64.84375 267.742188 69.15625 270.242188 C 89.839844 282.21875 159.242188 321.972656 173.101562 330.152344 C 182.421875 335.648438 191.519531 335.847656 200.910156 330.425781 C 235.722656 310.324219 270.582031 290.308594 305.410156 270.230469 C 309.726562 267.730469 312.914062 264.554688 315.015625 260.761719 C 317.058594 257.066406 318.070312 252.785156 318.074219 247.949219 C 318.074219 247.949219 318.074219 167.207031 318.058594 126.824219 " fill-opacity="1" fill-rule="nonzero"/></g><g clip-path="url(#d354762139)"><path fill="#02111a" d="M 187.683594 186.996094 L 59.550781 260.769531 C 61.652344 264.566406 64.84375 267.742188 69.15625 270.242188 C 89.839844 282.21875 159.242188 321.972656 173.101562 330.152344 C 182.421875 335.648438 191.519531 335.847656 200.910156 330.425781 C 235.722656 310.324219 270.582031 290.308594 305.410156 270.230469 C 309.726562 267.730469 312.914062 264.554688 315.015625 260.761719 L 187.683594 186.996094 " fill-opacity="1" fill-rule="nonzero"/></g><path fill="#02111a" d="M 149.730469 208.847656 C 157.1875 221.863281 171.203125 230.644531 187.285156 230.644531 C 203.460938 230.644531 217.558594 221.753906 224.976562 208.597656 L 187.683594 186.996094 L 149.730469 208.847656 " fill-opacity="1" fill-rule="nonzero"/><g clip-path="url(#42d7193d84)"><path fill="#02111a" d="M 318.058594 126.824219 C 318.058594 121.882812 317 117.515625 314.863281 113.765625 L 187.683594 186.996094 L 315.015625 260.761719 C 317.058594 257.066406 318.070312 252.785156 318.074219 247.949219 C 318.074219 247.949219 318.074219 167.207031 318.058594 126.824219 " fill-opacity="1" fill-rule="nonzero"/></g><path fill="#bae8e8" d="M 311.058594 192.265625 L 301.109375 192.265625 L 301.109375 202.21875 L 291.15625 202.21875 L 291.15625 192.265625 L 281.207031 192.265625 L 281.207031 182.316406 L 291.15625 182.316406 L 291.15625 172.367188 L 301.109375 172.367188 L 301.109375 182.316406 L 311.058594 182.316406 L 311.058594 192.265625 M 274.75 192.265625 L 264.800781 192.265625 L 264.800781 202.21875 L 254.851562 202.21875 L 254.851562 192.265625 L 244.902344 192.265625 L 244.902344 182.316406 L 254.851562 182.316406 L 254.851562 172.367188 L 264.800781 172.367188 L 264.800781 182.316406 L 274.75 182.316406 L 274.75 192.265625 " fill-opacity="1" fill-rule="nonzero"/><path fill="#bae8e8" d="M 224.976562 208.597656 C 217.558594 221.753906 203.460938 230.644531 187.285156 230.644531 C 171.203125 230.644531 157.1875 221.863281 149.730469 208.847656 C 147.859375 205.582031 146.441406 202.128906 145.472656 198.492188 C 144.503906 194.851562 144.023438 191.152344 144.027344 187.386719 C 144.027344 163.5 163.394531 144.132812 187.285156 144.132812 C 203.257812 144.132812 217.203125 152.800781 224.695312 165.6875 L 262.503906 143.914062 C 247.472656 117.972656 219.417969 100.523438 187.285156 100.523438 C 139.308594 100.523438 100.417969 139.414062 100.417969 187.386719 C 100.417969 203.125 104.605469 217.886719 111.921875 230.617188 C 126.910156 256.695312 155.046875 274.253906 187.285156 274.253906 C 219.578125 274.253906 247.757812 256.625 262.726562 230.46875 L 224.976562 208.597656 " fill-opacity="1" fill-rule="nonzero"/></svg>