<svg xmlns="http://www.w3.org/2000/svg" xmlns:xlink="http://www.w3.org/1999/xlink" width="500" zoomAndPan="magnify" viewBox="0 0 375 374.999991" height="500" preserveAspectRatio="xMidYMid meet" version="1.0"><defs><clipPath id="6ffbf48a40"><path d="M 75.511719 76 L 299.761719 76 L 299.761719 299 L 75.511719 299 Z M 75.511719 76 " clip-rule="nonzero"/></clipPath></defs><g clip-path="url(#6ffbf48a40)"><path fill="#02111a" d="M 283.933594 283.191406 C 282.394531 284.730469 280.261719 285.613281 278.085938 285.613281 L 251.160156 285.613281 C 248.980469 285.613281 246.847656 284.730469 245.308594 283.191406 C 243.769531 281.652344 242.886719 279.519531 242.886719 277.339844 C 242.886719 275.128906 243.75 273.050781 245.308594 271.488281 C 246.851562 269.949219 248.984375 269.0625 251.160156 269.0625 L 278.085938 269.0625 C 280.261719 269.0625 282.390625 269.949219 283.933594 271.488281 C 285.496094 273.050781 286.355469 275.128906 286.355469 277.339844 C 286.355469 279.519531 285.472656 281.652344 283.933594 283.191406 M 206.804688 271.492188 C 208.371094 273.054688 209.230469 275.132812 209.230469 277.339844 C 209.230469 279.515625 208.347656 281.648438 206.804688 283.191406 C 205.242188 284.753906 203.164062 285.613281 200.953125 285.613281 L 174.035156 285.613281 C 171.824219 285.613281 169.746094 284.753906 168.183594 283.191406 C 166.644531 281.648438 165.757812 279.515625 165.757812 277.339844 C 165.757812 275.132812 166.621094 273.054688 168.183594 271.488281 C 169.75 269.925781 171.828125 269.0625 174.035156 269.0625 L 200.953125 269.0625 C 203.164062 269.0625 205.242188 269.925781 206.804688 271.492188 M 245.308594 190.789062 C 243.769531 189.25 242.886719 187.117188 242.886719 184.941406 C 242.886719 182.730469 243.75 180.652344 245.308594 179.089844 C 246.851562 177.546875 248.984375 176.664062 251.160156 176.664062 L 278.085938 176.664062 C 280.261719 176.664062 282.390625 177.546875 283.933594 179.089844 C 285.496094 180.652344 286.355469 182.730469 286.355469 184.941406 C 286.355469 187.117188 285.472656 189.25 283.933594 190.789062 C 282.394531 192.328125 280.261719 193.210938 278.085938 193.210938 L 251.160156 193.210938 C 248.980469 193.210938 246.847656 192.328125 245.308594 190.789062 M 206.804688 179.089844 C 208.371094 180.65625 209.230469 182.730469 209.230469 184.941406 C 209.230469 187.117188 208.347656 189.25 206.804688 190.789062 C 205.242188 192.351562 203.164062 193.210938 200.953125 193.210938 L 174.035156 193.210938 C 171.824219 193.210938 169.746094 192.351562 168.183594 190.789062 C 166.644531 189.25 165.757812 187.117188 165.757812 184.941406 C 165.757812 182.730469 166.621094 180.65625 168.183594 179.089844 C 169.75 177.527344 171.828125 176.664062 174.035156 176.664062 L 200.953125 176.664062 C 203.164062 176.664062 205.242188 177.527344 206.804688 179.089844 M 129.679688 271.492188 C 131.242188 273.050781 132.101562 275.128906 132.101562 277.339844 C 132.101562 279.519531 131.21875 281.652344 129.679688 283.191406 C 128.117188 284.753906 126.039062 285.613281 123.828125 285.613281 L 96.910156 285.613281 C 94.695312 285.613281 92.617188 284.753906 91.054688 283.191406 C 89.515625 281.652344 88.632812 279.519531 88.632812 277.339844 C 88.632812 275.128906 89.492188 273.050781 91.054688 271.488281 C 92.597656 269.949219 94.730469 269.0625 96.910156 269.0625 L 123.828125 269.0625 C 126.039062 269.0625 128.117188 269.925781 129.679688 271.492188 M 168.183594 103.5 C 166.621094 101.933594 165.757812 99.859375 165.757812 97.648438 C 165.757812 95.472656 166.644531 93.339844 168.183594 91.800781 C 169.746094 90.238281 171.824219 89.378906 174.035156 89.378906 L 200.953125 89.378906 C 203.164062 89.378906 205.242188 90.238281 206.804688 91.800781 C 208.347656 93.339844 209.230469 95.472656 209.230469 97.648438 C 209.230469 99.859375 208.371094 101.933594 206.804688 103.5 C 205.242188 105.0625 203.164062 105.925781 200.953125 105.925781 L 174.035156 105.925781 C 171.828125 105.925781 169.75 105.0625 168.183594 103.5 M 278.085938 255.941406 L 271.183594 255.941406 L 271.183594 206.335938 L 278.085938 206.335938 C 283.800781 206.335938 289.171875 204.109375 293.214844 200.070312 C 297.253906 196.027344 299.480469 190.65625 299.480469 184.941406 C 299.480469 179.226562 297.253906 173.851562 293.214844 169.8125 C 289.230469 165.824219 283.714844 163.539062 278.085938 163.539062 L 272.605469 163.539062 L 272.605469 147.5625 C 272.605469 143.9375 269.671875 141 266.046875 141 L 192.71875 141 L 192.71875 119.046875 L 200.953125 119.046875 C 206.667969 119.046875 212.039062 116.820312 216.085938 112.777344 C 220.128906 108.734375 222.355469 103.363281 222.355469 97.648438 C 222.355469 92.019531 220.070312 86.503906 216.085938 82.519531 C 212.042969 78.480469 206.671875 76.253906 200.953125 76.253906 L 174.035156 76.253906 C 168.320312 76.253906 162.945312 78.480469 158.90625 82.519531 C 154.921875 86.503906 152.636719 92.019531 152.636719 97.648438 C 152.636719 103.363281 154.863281 108.734375 158.90625 112.777344 C 162.949219 116.820312 168.320312 119.046875 174.035156 119.046875 L 179.59375 119.046875 L 179.59375 141 L 110.371094 141 C 106.746094 141 103.808594 143.9375 103.808594 147.5625 L 103.808594 255.941406 L 96.910156 255.941406 C 91.195312 255.941406 85.820312 258.167969 81.777344 262.210938 C 77.734375 266.25 75.511719 271.625 75.511719 277.339844 C 75.511719 283.054688 77.734375 288.429688 81.777344 292.46875 C 85.816406 296.511719 91.191406 298.734375 96.910156 298.734375 L 123.828125 298.734375 C 129.546875 298.734375 134.917969 296.511719 138.960938 292.46875 C 143 288.429688 145.226562 283.054688 145.226562 277.339844 C 145.226562 271.625 143 266.25 138.960938 262.210938 C 134.917969 258.167969 129.542969 255.941406 123.828125 255.941406 L 116.929688 255.941406 L 116.929688 154.121094 L 179.59375 154.121094 L 179.59375 163.539062 L 174.035156 163.539062 C 168.320312 163.539062 162.949219 165.765625 158.90625 169.808594 C 154.863281 173.851562 152.636719 179.226562 152.636719 184.941406 C 152.636719 190.570312 154.921875 196.085938 158.90625 200.070312 C 162.945312 204.109375 168.320312 206.335938 174.035156 206.335938 L 200.953125 206.335938 C 206.671875 206.335938 212.042969 204.109375 216.085938 200.070312 C 220.070312 196.085938 222.355469 190.570312 222.355469 184.941406 C 222.355469 179.226562 220.128906 173.851562 216.085938 169.8125 C 212.039062 165.765625 206.667969 163.539062 200.953125 163.539062 L 192.71875 163.539062 L 192.71875 154.121094 L 259.484375 154.121094 L 259.484375 163.539062 L 251.160156 163.539062 C 245.527344 163.539062 240.015625 165.828125 236.03125 169.808594 C 231.988281 173.851562 229.765625 179.222656 229.765625 184.941406 C 229.765625 190.65625 231.988281 196.03125 236.03125 200.070312 C 240.070312 204.109375 245.445312 206.335938 251.160156 206.335938 L 258.058594 206.335938 L 258.058594 224.578125 L 187.496094 224.578125 C 183.871094 224.578125 180.933594 227.515625 180.933594 231.136719 L 180.933594 255.941406 L 174.035156 255.941406 C 168.320312 255.941406 162.949219 258.167969 158.90625 262.210938 C 154.863281 266.253906 152.636719 271.625 152.636719 277.339844 C 152.636719 282.972656 154.921875 288.484375 158.90625 292.46875 C 162.945312 296.511719 168.320312 298.734375 174.035156 298.734375 L 200.953125 298.734375 C 206.671875 298.734375 212.042969 296.511719 216.085938 292.46875 C 220.070312 288.484375 222.355469 282.972656 222.355469 277.339844 C 222.355469 271.625 220.128906 266.253906 216.085938 262.210938 C 212.039062 258.167969 206.667969 255.941406 200.953125 255.941406 L 194.054688 255.941406 L 194.054688 237.699219 L 258.058594 237.699219 L 258.058594 255.941406 L 251.160156 255.941406 C 245.527344 255.941406 240.015625 258.226562 236.03125 262.210938 C 231.988281 266.25 229.765625 271.625 229.765625 277.339844 C 229.765625 283.054688 231.988281 288.429688 236.03125 292.46875 C 240.070312 296.511719 245.445312 298.734375 251.160156 298.734375 L 278.085938 298.734375 C 283.800781 298.734375 289.171875 296.511719 293.214844 292.46875 C 297.253906 288.429688 299.480469 283.054688 299.480469 277.339844 C 299.480469 271.625 297.253906 266.25 293.214844 262.210938 C 289.230469 258.226562 283.714844 255.941406 278.085938 255.941406 " fill-opacity="1" fill-rule="nonzero"/></g></svg>