<svg xmlns="http://www.w3.org/2000/svg" xmlns:xlink="http://www.w3.org/1999/xlink" width="500" zoomAndPan="magnify" viewBox="0 0 375 374.999991" height="500" preserveAspectRatio="xMidYMid meet" version="1.0"><defs><clipPath id="42a97be46e"><path d="M 75.136719 78 L 300 78 L 300 342 L 75.136719 342 Z M 75.136719 78 " clip-rule="nonzero"/></clipPath></defs><g clip-path="url(#42a97be46e)"><path fill="#02111a" d="M 75.136719 78.914062 L 95.558594 310.539062 L 187.203125 341.085938 L 279.429688 310.539062 L 299.855469 78.914062 Z M 255.496094 153.761719 L 147.9375 153.761719 L 150.335938 182.671875 L 253.097656 182.671875 L 245.136719 269.515625 L 187.847656 285.316406 L 187.847656 285.492188 L 187.203125 285.492188 L 129.445312 269.515625 L 125.933594 225.15625 L 153.847656 225.15625 L 155.894531 247.453125 L 187.203125 255.9375 L 218.628906 247.453125 L 222.140625 211.054688 L 124.46875 211.054688 L 116.980469 125.847656 L 258.070312 125.847656 Z M 255.496094 153.761719 " fill-opacity="1" fill-rule="nonzero"/></g></svg>