<svg xmlns="http://www.w3.org/2000/svg" xmlns:xlink="http://www.w3.org/1999/xlink" width="500" zoomAndPan="magnify" viewBox="0 0 375 374.999991" height="500" preserveAspectRatio="xMidYMid meet" version="1.0"><path fill="#02111a" d="M 231.476562 216.695312 C 236.503906 213.257812 243.484375 210.28125 243.484375 210.28125 C 243.484375 210.28125 223.625 213.875 203.867188 215.515625 C 179.699219 217.515625 153.734375 217.929688 140.699219 216.183594 C 109.859375 212.078125 157.632812 200.738281 157.632812 200.738281 C 157.632812 200.738281 139.109375 199.507812 116.273438 210.488281 C 89.332031 223.519531 182.984375 229.472656 231.476562 216.695312 Z M 187.652344 200.222656 C 177.902344 178.3125 145.011719 159.070312 187.652344 125.40625 C 240.867188 83.429688 213.566406 56.132812 213.566406 56.132812 C 224.601562 99.492188 174.773438 112.628906 156.761719 139.570312 C 144.496094 157.992188 162.765625 177.75 187.652344 200.222656 Z M 246.460938 109.808594 C 246.511719 109.808594 156.554688 132.28125 199.507812 181.75 C 212.183594 196.324219 196.171875 209.460938 196.171875 209.460938 C 196.171875 209.460938 228.347656 192.835938 213.566406 172.050781 C 199.765625 152.65625 189.191406 143.007812 246.460938 109.808594 Z M 243.332031 248.613281 C 243.046875 249.105469 242.707031 249.550781 242.304688 249.949219 C 308.140625 232.65625 283.921875 188.933594 252.464844 200.019531 C 250.722656 200.65625 249.320312 201.734375 248.257812 203.25 C 250.097656 202.585938 251.976562 202.074219 253.902344 201.710938 C 269.808594 198.375 292.644531 223.007812 243.332031 248.613281 Z M 267.550781 280.585938 C 267.550781 280.585938 274.992188 286.691406 259.390625 291.464844 C 229.679688 300.441406 135.824219 303.164062 109.757812 291.820312 C 100.367188 287.769531 117.96875 282.070312 123.507812 280.890625 C 129.257812 279.660156 132.59375 279.867188 132.59375 279.867188 C 122.175781 272.527344 65.214844 294.285156 103.648438 300.496094 C 208.4375 317.53125 294.75 292.847656 267.550781 280.585938 Z M 152.808594 259.339844 C 112.425781 270.628906 177.390625 293.925781 228.808594 271.910156 C 223.785156 269.960938 218.960938 267.597656 214.335938 264.832031 C 191.398438 269.191406 180.777344 269.5 159.941406 267.140625 C 142.753906 265.191406 152.808594 259.339844 152.808594 259.339844 Z M 245.074219 309.21875 C 204.691406 316.8125 154.863281 315.941406 125.355469 311.066406 C 125.355469 311.015625 131.410156 316.042969 162.507812 318.042969 C 209.820312 321.070312 282.484375 316.351562 284.175781 293.976562 C 284.175781 293.976562 280.894531 302.445312 245.074219 309.21875 Z M 222.703125 237.273438 C 192.324219 243.125 174.722656 242.96875 152.503906 240.660156 C 135.3125 238.863281 146.550781 230.550781 146.550781 230.550781 C 102.007812 245.332031 171.285156 262.058594 233.53125 243.84375 C 229.464844 242.40625 225.855469 240.214844 222.703125 237.273438 Z M 222.703125 237.273438 " fill-opacity="1" fill-rule="nonzero"/></svg>