<svg xmlns="http://www.w3.org/2000/svg" xmlns:xlink="http://www.w3.org/1999/xlink" width="500" zoomAndPan="magnify" viewBox="0 0 375 374.999991" height="500" preserveAspectRatio="xMidYMid meet" version="1.0"><path fill="#02111a" d="M 280.425781 304.703125 L 94.667969 304.703125 C 101.230469 294.871094 111.617188 288.246094 123.296875 286.4375 C 141.824219 283.574219 168.316406 278.035156 170.601562 269.546875 C 171.246094 267.148438 171.105469 264.695312 170.433594 262.292969 L 204.664062 262.292969 C 203.992188 264.695312 203.84375 267.148438 204.492188 269.546875 C 206.777344 278.035156 233.269531 283.574219 251.800781 286.4375 C 263.480469 288.246094 273.863281 294.871094 280.425781 304.703125 Z M 280.425781 304.703125 " fill-opacity="1" fill-rule="nonzero"/><path fill="#02111a" d="M 97.332031 80.085938 L 97.332031 104.65625 L 277.765625 104.65625 L 277.765625 80.085938 C 277.765625 74.515625 273.210938 69.960938 267.640625 69.960938 L 107.457031 69.960938 C 101.886719 69.960938 97.332031 74.515625 97.332031 80.085938 Z M 246.539062 87.308594 C 246.539062 84.988281 248.4375 83.089844 250.757812 83.089844 L 260.210938 83.089844 C 262.53125 83.089844 264.429688 84.988281 264.429688 87.308594 C 264.429688 89.628906 262.53125 91.527344 260.210938 91.527344 L 250.757812 91.527344 C 248.4375 91.527344 246.539062 89.628906 246.539062 87.308594 Z M 218.359375 87.308594 C 218.359375 84.988281 220.257812 83.089844 222.578125 83.089844 L 232.027344 83.089844 C 234.347656 83.089844 236.246094 84.988281 236.246094 87.308594 C 236.246094 89.628906 234.347656 91.527344 232.027344 91.527344 L 222.578125 91.527344 C 220.257812 91.527344 218.359375 89.628906 218.359375 87.308594 Z M 190.179688 87.308594 C 190.179688 84.988281 192.078125 83.089844 194.398438 83.089844 L 203.847656 83.089844 C 206.167969 83.089844 208.066406 84.988281 208.066406 87.308594 C 208.066406 89.628906 206.167969 91.527344 203.847656 91.527344 L 194.398438 91.527344 C 192.078125 91.527344 190.179688 89.628906 190.179688 87.308594 Z M 190.179688 87.308594 " fill-opacity="1" fill-rule="nonzero"/><path fill="#02111a" d="M 294.796875 89.835938 L 286.203125 89.835938 L 286.203125 104.652344 C 286.203125 104.667969 286.203125 104.683594 286.203125 104.699219 C 286.1875 107.484375 286.1875 110.261719 286.203125 113.046875 C 286.203125 113.0625 286.203125 113.078125 286.203125 113.09375 L 286.203125 217.914062 C 286.203125 228.164062 277.894531 236.476562 267.640625 236.476562 L 107.457031 236.476562 C 97.203125 236.476562 88.894531 228.164062 88.894531 217.914062 L 88.894531 113.09375 C 88.894531 113.078125 88.894531 113.0625 88.894531 113.046875 C 88.910156 110.261719 88.910156 107.484375 88.894531 104.699219 C 88.894531 104.6875 88.894531 104.671875 88.894531 104.65625 L 88.894531 89.835938 L 80.300781 89.835938 C 74.710938 89.835938 70.175781 94.371094 70.175781 99.960938 L 70.175781 243.730469 C 70.175781 249.320312 74.710938 253.855469 80.300781 253.855469 L 294.796875 253.855469 C 300.386719 253.855469 304.921875 249.320312 304.921875 243.730469 L 304.921875 99.960938 C 304.921875 94.371094 300.386719 89.835938 294.796875 89.835938 Z M 294.796875 89.835938 " fill-opacity="1" fill-rule="nonzero"/><path fill="#02111a" d="M 227.832031 176.230469 L 222.496094 176.230469 L 222.496094 184.90625 L 227.832031 184.90625 C 229.054688 184.90625 230.082031 184.492188 230.917969 183.664062 C 231.75 182.835938 232.167969 181.792969 232.167969 180.542969 C 232.167969 179.363281 231.75 178.351562 230.917969 177.503906 C 230.082031 176.65625 229.054688 176.230469 227.832031 176.230469 Z M 227.832031 176.230469 " fill-opacity="1" fill-rule="nonzero"/><path fill="#02111a" d="M 97.332031 113.089844 L 97.332031 217.910156 C 97.332031 223.496094 101.871094 228.035156 107.457031 228.035156 L 267.644531 228.035156 C 273.226562 228.035156 277.769531 223.496094 277.769531 217.910156 C 277.769531 217.910156 277.769531 113.09375 277.769531 113.089844 Z M 112.433594 132.855469 L 121.882812 132.855469 C 124.203125 132.855469 126.101562 134.753906 126.101562 137.074219 C 126.101562 139.394531 124.203125 141.292969 121.882812 141.292969 L 112.433594 141.292969 C 110.113281 141.292969 108.214844 139.394531 108.214844 137.074219 C 108.214844 134.753906 110.113281 132.855469 112.433594 132.855469 Z M 129.65625 199.441406 C 131.300781 201.089844 131.300781 203.761719 129.65625 205.410156 C 128.007812 207.058594 125.335938 207.058594 123.6875 205.410156 L 109.449219 191.171875 C 107.800781 189.523438 107.800781 186.851562 109.449219 185.203125 L 123.6875 170.964844 C 125.335938 169.316406 128.007812 169.316406 129.65625 170.964844 C 131.300781 172.613281 131.300781 175.28125 129.65625 176.929688 L 118.398438 188.1875 Z M 171.773438 194.4375 C 170.816406 196.667969 169.507812 198.609375 167.851562 200.269531 C 166.191406 201.925781 164.25 203.226562 162.019531 204.164062 C 159.792969 205.101562 157.40625 205.574219 154.863281 205.574219 C 152.324219 205.574219 149.929688 205.101562 147.683594 204.164062 C 145.433594 203.226562 143.480469 201.933594 141.824219 200.296875 C 140.167969 198.65625 138.851562 196.730469 137.875 194.523438 C 136.898438 192.3125 136.410156 189.933594 136.410156 187.394531 C 136.410156 184.925781 136.871094 182.578125 137.789062 180.347656 C 138.710938 178.121094 139.992188 176.160156 141.632812 174.464844 C 143.269531 172.769531 145.195312 171.425781 147.40625 170.429688 C 149.617188 169.4375 152.011719 168.9375 154.589844 168.9375 C 157.242188 168.9375 159.699219 169.425781 161.964844 170.402344 C 164.230469 171.378906 166.203125 172.695312 167.878906 174.351562 C 169.554688 176.011719 170.863281 177.953125 171.800781 180.183594 C 172.742188 182.414062 173.210938 184.777344 173.210938 187.285156 C 173.210938 189.824219 172.730469 192.210938 171.773438 194.4375 Z M 211.335938 194.4375 C 210.378906 196.667969 209.070312 198.609375 207.414062 200.269531 C 205.753906 201.925781 203.8125 203.226562 201.582031 204.164062 C 199.355469 205.101562 196.96875 205.574219 194.429688 205.574219 C 191.886719 205.574219 189.492188 205.101562 187.246094 204.164062 C 184.996094 203.226562 183.046875 201.933594 181.386719 200.296875 C 179.730469 198.65625 178.410156 196.730469 177.4375 194.523438 C 176.460938 192.3125 175.972656 189.933594 175.972656 187.394531 C 175.972656 184.925781 176.433594 182.578125 177.351562 180.347656 C 178.273438 178.121094 179.554688 176.160156 181.195312 174.464844 C 182.832031 172.769531 184.757812 171.425781 186.96875 170.429688 C 189.179688 169.4375 191.574219 168.9375 194.152344 168.9375 C 196.804688 168.9375 199.261719 169.425781 201.527344 170.402344 C 203.792969 171.378906 205.765625 172.695312 207.441406 174.351562 C 209.117188 176.011719 210.425781 177.953125 211.363281 180.183594 C 212.304688 182.414062 212.773438 184.777344 212.773438 187.285156 C 212.773438 189.824219 212.292969 192.210938 211.335938 194.4375 Z M 237.828125 184.824219 C 237.253906 186.132812 236.46875 187.285156 235.472656 188.277344 C 234.472656 189.273438 233.308594 190.054688 231.976562 190.625 C 230.648438 191.199219 229.242188 191.484375 227.765625 191.484375 L 222.496094 191.484375 L 222.496094 201.484375 C 222.496094 203.695312 221.421875 204.800781 219.265625 204.800781 C 217.074219 204.800781 215.976562 203.695312 215.976562 201.484375 L 215.976562 173.578125 C 215.976562 171 217.285156 169.710938 219.898438 169.710938 L 227.800781 169.710938 C 229.273438 169.710938 230.675781 169.996094 232 170.566406 C 233.328125 171.140625 234.488281 171.921875 235.484375 172.917969 C 236.476562 173.910156 237.261719 175.070312 237.832031 176.398438 C 238.402344 177.722656 238.6875 179.125 238.6875 180.597656 C 238.6875 182.109375 238.402344 183.515625 237.828125 184.824219 Z M 265.648438 191.171875 L 251.40625 205.410156 C 249.761719 207.058594 247.089844 207.058594 245.441406 205.410156 C 243.792969 203.761719 243.792969 201.089844 245.441406 199.441406 L 256.699219 188.1875 L 245.441406 176.929688 C 243.792969 175.28125 243.792969 172.613281 245.441406 170.964844 C 247.089844 169.316406 249.761719 169.316406 251.40625 170.964844 L 265.648438 185.203125 C 267.292969 186.851562 267.292969 189.523438 265.648438 191.171875 Z M 262.664062 141.292969 L 140.109375 141.292969 C 137.789062 141.292969 135.890625 139.394531 135.890625 137.074219 C 135.890625 134.753906 137.789062 132.855469 140.109375 132.855469 L 262.664062 132.855469 C 264.984375 132.855469 266.882812 134.753906 266.882812 137.074219 C 266.882812 139.394531 264.984375 141.292969 262.664062 141.292969 Z M 262.664062 141.292969 " fill-opacity="1" fill-rule="nonzero"/><path fill="#02111a" d="M 202.605469 178.941406 C 201.535156 177.871094 200.285156 177.023438 198.847656 176.398438 C 197.410156 175.773438 195.902344 175.457031 194.316406 175.457031 C 192.660156 175.457031 191.121094 175.78125 189.703125 176.425781 C 188.285156 177.070312 187.058594 177.9375 186.027344 179.023438 C 184.996094 180.109375 184.1875 181.378906 183.597656 182.835938 C 183.007812 184.292969 182.714844 185.8125 182.714844 187.394531 C 182.714844 189.015625 183.007812 190.523438 183.597656 191.925781 C 184.1875 193.324219 185.007812 194.558594 186.054688 195.628906 C 187.105469 196.695312 188.332031 197.53125 189.730469 198.140625 C 191.128906 198.75 192.660156 199.054688 194.316406 199.054688 C 195.976562 199.054688 197.511719 198.75 198.929688 198.140625 C 200.347656 197.535156 201.59375 196.695312 202.660156 195.628906 C 203.730469 194.558594 204.566406 193.304688 205.175781 191.871094 C 205.78125 190.433594 206.085938 188.90625 206.085938 187.285156 C 206.085938 185.664062 205.773438 184.132812 205.148438 182.695312 C 204.519531 181.261719 203.675781 180.007812 202.605469 178.941406 Z M 202.605469 178.941406 " fill-opacity="1" fill-rule="nonzero"/><path fill="#02111a" d="M 163.042969 178.941406 C 161.972656 177.871094 160.722656 177.023438 159.285156 176.398438 C 157.847656 175.773438 156.335938 175.457031 154.753906 175.457031 C 153.097656 175.457031 151.558594 175.78125 150.140625 176.425781 C 148.722656 177.070312 147.496094 177.9375 146.464844 179.023438 C 145.433594 180.109375 144.625 181.378906 144.035156 182.835938 C 143.445312 184.292969 143.148438 185.8125 143.148438 187.394531 C 143.148438 189.015625 143.445312 190.523438 144.035156 191.925781 C 144.625 193.324219 145.445312 194.558594 146.492188 195.628906 C 147.542969 196.695312 148.765625 197.53125 150.167969 198.140625 C 151.566406 198.75 153.097656 199.054688 154.753906 199.054688 C 156.410156 199.054688 157.949219 198.75 159.367188 198.140625 C 160.785156 197.535156 162.027344 196.695312 163.097656 195.628906 C 164.164062 194.558594 165.003906 193.304688 165.613281 191.871094 C 166.21875 190.433594 166.523438 188.90625 166.523438 187.285156 C 166.523438 185.664062 166.210938 184.132812 165.582031 182.695312 C 164.957031 181.261719 164.109375 180.007812 163.042969 178.941406 Z M 163.042969 178.941406 " fill-opacity="1" fill-rule="nonzero"/></svg>