<svg xmlns="http://www.w3.org/2000/svg" xmlns:xlink="http://www.w3.org/1999/xlink" width="500" zoomAndPan="magnify" viewBox="0 0 375 374.999991" height="500" preserveAspectRatio="xMidYMid meet" version="1.0"><path fill="#02111a" d="M 144.601562 120 C 132.449219 120 120.898438 120 113.023438 120.601562 C 112.050781 120.601562 110.324219 121.199219 110.324219 122.101562 L 110.324219 253.5 C 110.324219 254.625 110.851562 255 111.824219 255 L 130.5 255 C 131.625 255 132 254.476562 132 253.5 L 132 206.550781 L 141.523438 206.550781 C 169.199219 206.550781 191.699219 193.199219 191.699219 162.148438 C 191.699219 138.601562 178.5 120 144.601562 120 Z M 142.050781 187.5 C 138.75 187.6875 135.449219 187.6875 132.148438 187.5 L 132.148438 139.800781 C 134.324219 139.800781 138.976562 139.425781 143.851562 139.425781 C 160.125 139.425781 169.800781 147.300781 169.800781 162.824219 C 169.800781 182.25 156.300781 187.5 142.050781 187.5 Z M 264.898438 227.101562 C 264.898438 246.675781 249.898438 257.101562 229.648438 257.101562 C 225.3125 257.257812 221.015625 256.894531 216.765625 256.007812 C 212.515625 255.117188 208.4375 253.734375 204.523438 251.851562 C 203.699219 251.476562 203.550781 250.875 203.550781 249.898438 L 203.550781 231.75 C 203.550781 230.550781 204.148438 230.175781 205.050781 230.773438 C 208.707031 233.179688 212.625 235.019531 216.808594 236.296875 C 220.996094 237.570312 225.273438 238.230469 229.648438 238.273438 C 239.398438 238.273438 243.449219 234.226562 243.449219 228.675781 C 243.449219 223.125 240.601562 220.351562 228.449219 213.675781 C 211.050781 205.351562 203.773438 196.875 203.773438 182.773438 C 203.773438 166.949219 216.148438 153.824219 237.601562 153.824219 C 245.160156 153.480469 252.484375 154.632812 259.574219 157.273438 C 259.980469 157.535156 260.289062 157.878906 260.503906 158.308594 C 260.71875 158.742188 260.808594 159.195312 260.773438 159.675781 L 260.773438 176.476562 C 260.773438 177.523438 260.175781 178.125 258.976562 177.75 C 255.683594 175.902344 252.203125 174.535156 248.535156 173.644531 C 244.867188 172.75 241.148438 172.371094 237.375 172.5 C 227.699219 172.5 224.398438 177.449219 224.398438 181.5 C 224.398438 185.550781 226.648438 189 239.398438 195.675781 C 258.898438 204.824219 264.898438 213.75 264.898438 226.875 Z M 264.898438 227.101562 " fill-opacity="1" fill-rule="nonzero"/></svg>