<svg xmlns="http://www.w3.org/2000/svg" xmlns:xlink="http://www.w3.org/1999/xlink" width="500" zoomAndPan="magnify" viewBox="0 0 375 374.999991" height="500" preserveAspectRatio="xMidYMid meet" version="1.0"><path fill="#02111a" d="M 297.820312 93.6875 L 248.894531 69.9375 C 247.066406 69.195312 245.167969 68.796875 243.195312 68.75 L 242.242188 68.75 C 240.699219 68.742188 239.199219 68.980469 237.734375 69.46875 C 236.269531 69.957031 234.921875 70.667969 233.695312 71.601562 L 232.03125 73.023438 L 138.457031 158.40625 L 97.726562 128.125 C 96.808594 127.421875 95.796875 126.898438 94.695312 126.550781 C 93.59375 126.207031 92.464844 126.054688 91.3125 126.105469 C 88.992188 126.078125 86.890625 126.753906 85.019531 128.125 L 71.957031 140 C 70.921875 140.917969 70.121094 142.007812 69.5625 143.273438 C 69.003906 144.535156 68.730469 145.859375 68.75 147.242188 C 68.746094 148.640625 69.023438 149.980469 69.578125 151.261719 C 70.136719 152.542969 70.929688 153.65625 71.957031 154.605469 L 107.582031 186.789062 L 71.957031 219.085938 C 71.453125 219.554688 71.003906 220.066406 70.609375 220.625 C 70.214844 221.1875 69.878906 221.78125 69.605469 222.40625 C 69.332031 223.035156 69.125 223.6875 68.984375 224.355469 C 68.84375 225.027344 68.777344 225.707031 68.777344 226.390625 C 68.777344 227.074219 68.84375 227.753906 68.984375 228.425781 C 69.125 229.09375 69.332031 229.746094 69.605469 230.375 C 69.878906 231 70.214844 231.59375 70.609375 232.15625 C 71.003906 232.714844 71.453125 233.226562 71.957031 233.695312 L 85.019531 245.570312 C 86.003906 246.429688 87.109375 247.085938 88.339844 247.535156 C 89.566406 247.988281 90.835938 248.203125 92.144531 248.179688 C 94.191406 248.027344 96.050781 247.355469 97.726562 246.164062 L 138.457031 215.167969 L 232.03125 300.550781 C 233.226562 301.785156 234.605469 302.769531 236.15625 303.503906 C 237.710938 304.238281 239.34375 304.679688 241.054688 304.824219 L 243.074219 304.824219 C 245.136719 304.855469 247.078125 304.378906 248.894531 303.398438 L 297.820312 279.648438 C 299.054688 279.058594 300.191406 278.308594 301.21875 277.402344 C 302.25 276.492188 303.136719 275.464844 303.882812 274.3125 C 304.625 273.15625 305.199219 271.925781 305.601562 270.613281 C 306.003906 269.300781 306.21875 267.960938 306.25 266.585938 L 306.25 107.105469 C 306.246094 105.707031 306.050781 104.332031 305.660156 102.988281 C 305.269531 101.640625 304.703125 100.375 303.957031 99.1875 C 303.210938 98.003906 302.316406 96.941406 301.273438 96.007812 C 300.230469 95.070312 299.078125 94.300781 297.820312 93.6875 Z M 246.875 240.582031 L 175.625 186.789062 L 246.875 132.992188 Z M 246.875 240.582031 " fill-opacity="1" fill-rule="nonzero"/></svg>